<?xml version="1.0" encoding="UTF-8" standalone="yes"?>
<svg xmlns="http://www.w3.org/2000/svg" viewBox="0 0 512 512" width="512" height="512" id="punk-svg-1150">
<defs>
    <linearGradient id="metalGrad" x1="0%" y1="0%" x2="100%" y2="0%">
        <stop offset="0%" stop-color="#fff"/>
        <stop offset="50%" stop-color="#888"/>
        <stop offset="100%" stop-color="#fff"/>
    </linearGradient>
    <filter id="goo">
        <feGaussianBlur in="SourceGraphic" stdDeviation="5" result="blur" />
        <feColorMatrix in="blur" mode="matrix" values="1 0 0 0 0  0 1 0 0 0  0 0 1 0 0  0 0 0 18 -7" result="goo" />
        <feBlend in="SourceGraphic" in2="goo" />
    </filter>
</defs>



<defs>
<filter id="sw_1150_watchAlt" x="-20%" y="-20%" width="140%" height="140%"><feDropShadow dx="0" dy="6" stdDeviation="12" flood-color="#000" flood-opacity="0.6"/></filter>
<linearGradient id="gl_1150_watchAlt" x1="0%" y1="0%" x2="100%" y2="100%"><stop offset="0%" stop-color="rgba(255,255,255,0.4)"/><stop offset="30%" stop-color="rgba(255,255,255,0.02)"/><stop offset="100%" stop-color="rgba(255,255,255,0)"/></linearGradient>
<clipPath id="cp_1150_watchAlt">
    <circle cx="256" cy="256" r="142.7501421631314"/>
</clipPath>
<pattern id="wf_1150_watchAlt" x="0" y="0" width="15.551945259794593" height="19.04265359044075" patternUnits="userSpaceOnUse"><rect width="20" height="20" fill="none" stroke="black" stroke-opacity="0.2" stroke-width="1"/></pattern>
<pattern id="cf_1150_watchAlt" x="0" y="0" width="15.34782538190484" height="19.712750022299588" patternUnits="userSpaceOnUse"><rect x="0" y="0" width="10" height="10" fill="black" fill-opacity="0.1"/><rect x="10" y="10" width="10" height="10" fill="black" fill-opacity="0.1"/></pattern>
<pattern id="hc_1150_watchAlt" x="0" y="0" width="24.146369884256274" height="18.974544084165245" patternUnits="userSpaceOnUse"><path d="M 8.66,0 L 17.32,5 L 17.32,10 L 8.66,15 L 0,10 L 0,5 Z" fill="none" stroke="white" stroke-opacity="0.1" stroke-width="1"/></pattern>
<pattern id="dp_1150_watchAlt" x="0" y="0" width="1" height="1" patternUnits="userSpaceOnUse">
    <circle cx="0.5" cy="0.5" r="0.2" fill="white" />
</pattern>
<filter id="tg_1150_watchAlt" x="-50%" y="-50%" width="200%" height="200%">
    <feGaussianBlur stdDeviation="1.5" result="blur" />
    <feComposite in="SourceGraphic" in2="blur" operator="over" />
</filter>
<style>
.hr-hand, .mn-hand, .sc-hand { transform-origin: 0px 0px; transition: transform 0.2s cubic-bezier(0.4, 2.08, 0.55, 0.44); }
.watch-face:hover { filter: brightness(1.2); cursor: pointer; }
</style>
</defs>

<style>
@keyframes gl{0%,87%,100%{opacity:0}90%{opacity:.4}93%{opacity:0}}.glr{animation:gl 10s infinite}
    @keyframes tm-neon {
        0% { filter: drop-shadow(0 0 1px #fff) drop-shadow(0 0 3px #ff0000) drop-shadow(0 0 6px #ff0000); fill: #ffcccc; }
        20% { filter: drop-shadow(0 0 1px #fff) drop-shadow(0 0 3px #ffff00) drop-shadow(0 0 6px #ffff00); fill: #ffffcc; }
        40% { filter: drop-shadow(0 0 1px #fff) drop-shadow(0 0 3px #00ff00) drop-shadow(0 0 6px #00ff00); fill: #ccffcc; }
        60% { filter: drop-shadow(0 0 1px #fff) drop-shadow(0 0 3px #00ffff) drop-shadow(0 0 6px #00ffff); fill: #ccffff; }
        80% { filter: drop-shadow(0 0 1px #fff) drop-shadow(0 0 3px #0000ff) drop-shadow(0 0 6px #0000ff); fill: #ccccff; }
        100% { filter: drop-shadow(0 0 1px #fff) drop-shadow(0 0 3px #ff0000) drop-shadow(0 0 6px #ff0000); fill: #ffcccc; }
    }
    .tm-text {
        font-family: 'Courier New', monospace;
        font-size: 4.5px;
        font-weight: bold;
        animation: tm-neon 8s linear infinite;
        text-anchor: start;
    }
    /* --- NEW MASK ANIMATIONS --- */
    @keyframes mk-pulse { 0%, 100% { opacity: 0.3; transform: scale(0.95); } 50% { opacity: 1; transform: scale(1.05); } }
    @keyframes mk-rainbow { 0% { stop-color: #ff0000; fill: #ff0000; stroke: #ff0000; } 20% { stop-color: #ffff00; fill: #ffff00; stroke: #ffff00; } 40% { stop-color: #00ff00; fill: #00ff00; stroke: #00ff00; } 60% { stop-color: #00ffff; fill: #00ffff; stroke: #00ffff; } 80% { stop-color: #0000ff; fill: #0000ff; stroke: #0000ff; } 100% { stop-color: #ff0000; fill: #ff0000; stroke: #ff0000; } }
    @keyframes mk-scan { 0% { transform: translateY(-30px); opacity: 0; } 50% { opacity: 1; } 100% { transform: translateY(30px); opacity: 0; } }
    @keyframes mk-glitch { 0%, 100% { transform: translate(0); } 10%, 90% { transform: translate(-2px, 1px); } 20%, 80% { transform: translate(2px, -1px); } }
    @keyframes mk-rotate { from { transform: rotate(0deg); } to { transform: rotate(360deg); } }
    @keyframes mk-float { 0%, 100% { transform: translateY(0); } 50% { transform: translateY(-10px); } }
    .m-pulse { animation: mk-pulse 2s ease-in-out infinite; transform-box: fill-box; transform-origin: center; }
    .m-rainbow { animation: mk-rainbow 5s linear infinite; }
    .m-scan { animation: mk-scan 2s linear infinite; }
    .m-glitch { animation: mk-glitch 0.2s steps(2) infinite; }
    .m-rotate { animation: mk-rotate 4s linear infinite; transform-box: fill-box; transform-origin: center; }
    .m-float { animation: mk-float 3s ease-in-out infinite; }
    .m-fast-rotate { animation: mk-rotate 1s linear infinite; transform-box: fill-box; transform-origin: center; }
    @keyframes bgGrid{0%{transform:translateY(0)}100%{transform:translateY(40px)}}.bgGrid{animation:bgGrid 4s linear infinite}@keyframes nwFloat{0%,100%{transform:translateY(0)}50%{transform:translateY(8px)}}.nwFloat{animation:nwFloat 4s ease-in-out infinite;transform-origin:center;transform-box:fill-box;}
        @keyframes prt-fade { 0%, 100% { opacity: 0; } 50% { opacity: 0.6; } }
        @keyframes prt-float { 0% { transform: translateY(0) translateX(0); } 50% { transform: translateY(-20px) translateX(10px); } 100% { transform: translateY(0) translateX(0); } }
        .prt { animation: prt-fade 4s infinite ease-in-out, prt-float 6s infinite ease-in-out; }
        
@keyframes gl{0%,87%,100%{opacity:0}90%{opacity:.4}93%{opacity:0}}.glr{animation:gl 10s infinite}
    @keyframes tm-neon {
        0% { filter: drop-shadow(0 0 1px #fff) drop-shadow(0 0 3px #ff0000) drop-shadow(0 0 6px #ff0000); fill: #ffcccc; }
        20% { filter: drop-shadow(0 0 1px #fff) drop-shadow(0 0 3px #ffff00) drop-shadow(0 0 6px #ffff00); fill: #ffffcc; }
        40% { filter: drop-shadow(0 0 1px #fff) drop-shadow(0 0 3px #00ff00) drop-shadow(0 0 6px #00ff00); fill: #ccffcc; }
        60% { filter: drop-shadow(0 0 1px #fff) drop-shadow(0 0 3px #00ffff) drop-shadow(0 0 6px #00ffff); fill: #ccffff; }
        80% { filter: drop-shadow(0 0 1px #fff) drop-shadow(0 0 3px #0000ff) drop-shadow(0 0 6px #0000ff); fill: #ccccff; }
        100% { filter: drop-shadow(0 0 1px #fff) drop-shadow(0 0 3px #ff0000) drop-shadow(0 0 6px #ff0000); fill: #ffcccc; }
    }
    .tm-text {
        font-family: 'Courier New', monospace;
        font-size: 4.5px;
        font-weight: bold;
        animation: tm-neon 8s linear infinite;
        text-anchor: start;
    }
    /* --- NEW MASK ANIMATIONS --- */
    @keyframes mk-pulse { 0%, 100% { opacity: 0.3; transform: scale(0.95); } 50% { opacity: 1; transform: scale(1.05); } }
    @keyframes mk-rainbow { 0% { stop-color: #ff0000; fill: #ff0000; stroke: #ff0000; } 20% { stop-color: #ffff00; fill: #ffff00; stroke: #ffff00; } 40% { stop-color: #00ff00; fill: #00ff00; stroke: #00ff00; } 60% { stop-color: #00ffff; fill: #00ffff; stroke: #00ffff; } 80% { stop-color: #0000ff; fill: #0000ff; stroke: #0000ff; } 100% { stop-color: #ff0000; fill: #ff0000; stroke: #ff0000; } }
    @keyframes mk-scan { 0% { transform: translateY(-30px); opacity: 0; } 50% { opacity: 1; } 100% { transform: translateY(30px); opacity: 0; } }
    @keyframes mk-glitch { 0%, 100% { transform: translate(0); } 10%, 90% { transform: translate(-2px, 1px); } 20%, 80% { transform: translate(2px, -1px); } }
    @keyframes mk-rotate { from { transform: rotate(0deg); } to { transform: rotate(360deg); } }
    @keyframes mk-float { 0%, 100% { transform: translateY(0); } 50% { transform: translateY(-10px); } }
    .m-pulse { animation: mk-pulse 2s ease-in-out infinite; transform-box: fill-box; transform-origin: center; }
    .m-rainbow { animation: mk-rainbow 5s linear infinite; }
    .m-scan { animation: mk-scan 2s linear infinite; }
    .m-glitch { animation: mk-glitch 0.2s steps(2) infinite; }
    .m-rotate { animation: mk-rotate 4s linear infinite; transform-box: fill-box; transform-origin: center; }
    .m-float { animation: mk-float 3s ease-in-out infinite; }
    .m-fast-rotate { animation: mk-rotate 1s linear infinite; transform-box: fill-box; transform-origin: center; }
    @keyframes bgGrid{0%{transform:translateY(0)}100%{transform:translateY(40px)}}.bgGrid{animation:bgGrid 4s linear infinite}@keyframes nwFloat{0%,100%{transform:translateY(0)}50%{transform:translateY(8px)}}.nwFloat{animation:nwFloat 4s ease-in-out infinite;transform-origin:center;transform-box:fill-box;}
        @keyframes prt-fade { 0%, 100% { opacity: 0; } 50% { opacity: 0.6; } }
        @keyframes prt-float { 0% { transform: translateY(0) translateX(0); } 50% { transform: translateY(-20px) translateX(10px); } 100% { transform: translateY(0) translateX(0); } }
        .prt { animation: prt-fade 4s infinite ease-in-out, prt-float 6s infinite ease-in-out; }
        
@keyframes gl{0%,87%,100%{opacity:0}90%{opacity:.4}93%{opacity:0}}.glr{animation:gl 10s infinite}
    @keyframes tm-neon {
        0% { filter: drop-shadow(0 0 1px #fff) drop-shadow(0 0 3px #ff0000) drop-shadow(0 0 6px #ff0000); fill: #ffcccc; }
        20% { filter: drop-shadow(0 0 1px #fff) drop-shadow(0 0 3px #ffff00) drop-shadow(0 0 6px #ffff00); fill: #ffffcc; }
        40% { filter: drop-shadow(0 0 1px #fff) drop-shadow(0 0 3px #00ff00) drop-shadow(0 0 6px #00ff00); fill: #ccffcc; }
        60% { filter: drop-shadow(0 0 1px #fff) drop-shadow(0 0 3px #00ffff) drop-shadow(0 0 6px #00ffff); fill: #ccffff; }
        80% { filter: drop-shadow(0 0 1px #fff) drop-shadow(0 0 3px #0000ff) drop-shadow(0 0 6px #0000ff); fill: #ccccff; }
        100% { filter: drop-shadow(0 0 1px #fff) drop-shadow(0 0 3px #ff0000) drop-shadow(0 0 6px #ff0000); fill: #ffcccc; }
    }
    .tm-text {
        font-family: 'Courier New', monospace;
        font-size: 4.5px;
        font-weight: bold;
        animation: tm-neon 8s linear infinite;
        text-anchor: start;
    }
    /* --- NEW MASK ANIMATIONS --- */
    @keyframes mk-pulse { 0%, 100% { opacity: 0.3; transform: scale(0.95); } 50% { opacity: 1; transform: scale(1.05); } }
    @keyframes mk-rainbow { 0% { stop-color: #ff0000; fill: #ff0000; stroke: #ff0000; } 20% { stop-color: #ffff00; fill: #ffff00; stroke: #ffff00; } 40% { stop-color: #00ff00; fill: #00ff00; stroke: #00ff00; } 60% { stop-color: #00ffff; fill: #00ffff; stroke: #00ffff; } 80% { stop-color: #0000ff; fill: #0000ff; stroke: #0000ff; } 100% { stop-color: #ff0000; fill: #ff0000; stroke: #ff0000; } }
    @keyframes mk-scan { 0% { transform: translateY(-30px); opacity: 0; } 50% { opacity: 1; } 100% { transform: translateY(30px); opacity: 0; } }
    @keyframes mk-glitch { 0%, 100% { transform: translate(0); } 10%, 90% { transform: translate(-2px, 1px); } 20%, 80% { transform: translate(2px, -1px); } }
    @keyframes mk-rotate { from { transform: rotate(0deg); } to { transform: rotate(360deg); } }
    @keyframes mk-float { 0%, 100% { transform: translateY(0); } 50% { transform: translateY(-10px); } }
    .m-pulse { animation: mk-pulse 2s ease-in-out infinite; transform-box: fill-box; transform-origin: center; }
    .m-rainbow { animation: mk-rainbow 5s linear infinite; }
    .m-scan { animation: mk-scan 2s linear infinite; }
    .m-glitch { animation: mk-glitch 0.2s steps(2) infinite; }
    .m-rotate { animation: mk-rotate 4s linear infinite; transform-box: fill-box; transform-origin: center; }
    .m-float { animation: mk-float 3s ease-in-out infinite; }
    .m-fast-rotate { animation: mk-rotate 1s linear infinite; transform-box: fill-box; transform-origin: center; }
    @keyframes bgGrid{0%{transform:translateY(0)}100%{transform:translateY(40px)}}.bgGrid{animation:bgGrid 4s linear infinite}@keyframes nwFloat{0%,100%{transform:translateY(0)}50%{transform:translateY(8px)}}.nwFloat{animation:nwFloat 4s ease-in-out infinite;transform-origin:center;transform-box:fill-box;}
        @keyframes prt-fade { 0%, 100% { opacity: 0; } 50% { opacity: 0.6; } }
        @keyframes prt-float { 0% { transform: translateY(0) translateX(0); } 50% { transform: translateY(-20px) translateX(10px); } 100% { transform: translateY(0) translateX(0); } }
        .prt { animation: prt-fade 4s infinite ease-in-out, prt-float 6s infinite ease-in-out; }
        
@keyframes gl{0%,87%,100%{opacity:0}90%{opacity:.4}93%{opacity:0}}.glr{animation:gl 10s infinite}
    @keyframes tm-neon {
        0% { filter: drop-shadow(0 0 1px #fff) drop-shadow(0 0 3px #ff0000) drop-shadow(0 0 6px #ff0000); fill: #ffcccc; }
        20% { filter: drop-shadow(0 0 1px #fff) drop-shadow(0 0 3px #ffff00) drop-shadow(0 0 6px #ffff00); fill: #ffffcc; }
        40% { filter: drop-shadow(0 0 1px #fff) drop-shadow(0 0 3px #00ff00) drop-shadow(0 0 6px #00ff00); fill: #ccffcc; }
        60% { filter: drop-shadow(0 0 1px #fff) drop-shadow(0 0 3px #00ffff) drop-shadow(0 0 6px #00ffff); fill: #ccffff; }
        80% { filter: drop-shadow(0 0 1px #fff) drop-shadow(0 0 3px #0000ff) drop-shadow(0 0 6px #0000ff); fill: #ccccff; }
        100% { filter: drop-shadow(0 0 1px #fff) drop-shadow(0 0 3px #ff0000) drop-shadow(0 0 6px #ff0000); fill: #ffcccc; }
    }
    .tm-text {
        font-family: 'Courier New', monospace;
        font-size: 4.5px;
        font-weight: bold;
        animation: tm-neon 8s linear infinite;
        text-anchor: start;
    }
    /* --- NEW MASK ANIMATIONS --- */
    @keyframes mk-pulse { 0%, 100% { opacity: 0.3; transform: scale(0.95); } 50% { opacity: 1; transform: scale(1.05); } }
    @keyframes mk-rainbow { 0% { stop-color: #ff0000; fill: #ff0000; stroke: #ff0000; } 20% { stop-color: #ffff00; fill: #ffff00; stroke: #ffff00; } 40% { stop-color: #00ff00; fill: #00ff00; stroke: #00ff00; } 60% { stop-color: #00ffff; fill: #00ffff; stroke: #00ffff; } 80% { stop-color: #0000ff; fill: #0000ff; stroke: #0000ff; } 100% { stop-color: #ff0000; fill: #ff0000; stroke: #ff0000; } }
    @keyframes mk-scan { 0% { transform: translateY(-30px); opacity: 0; } 50% { opacity: 1; } 100% { transform: translateY(30px); opacity: 0; } }
    @keyframes mk-glitch { 0%, 100% { transform: translate(0); } 10%, 90% { transform: translate(-2px, 1px); } 20%, 80% { transform: translate(2px, -1px); } }
    @keyframes mk-rotate { from { transform: rotate(0deg); } to { transform: rotate(360deg); } }
    @keyframes mk-float { 0%, 100% { transform: translateY(0); } 50% { transform: translateY(-10px); } }
    .m-pulse { animation: mk-pulse 2s ease-in-out infinite; transform-box: fill-box; transform-origin: center; }
    .m-rainbow { animation: mk-rainbow 5s linear infinite; }
    .m-scan { animation: mk-scan 2s linear infinite; }
    .m-glitch { animation: mk-glitch 0.2s steps(2) infinite; }
    .m-rotate { animation: mk-rotate 4s linear infinite; transform-box: fill-box; transform-origin: center; }
    .m-float { animation: mk-float 3s ease-in-out infinite; }
    .m-fast-rotate { animation: mk-rotate 1s linear infinite; transform-box: fill-box; transform-origin: center; }
    @keyframes bgGrid{0%{transform:translateY(0)}100%{transform:translateY(40px)}}.bgGrid{animation:bgGrid 4s linear infinite}@keyframes nwFloat{0%,100%{transform:translateY(0)}50%{transform:translateY(8px)}}.nwFloat{animation:nwFloat 4s ease-in-out infinite;transform-origin:center;transform-box:fill-box;}
        @keyframes prt-fade { 0%, 100% { opacity: 0; } 50% { opacity: 0.6; } }
        @keyframes prt-float { 0% { transform: translateY(0) translateX(0); } 50% { transform: translateY(-20px) translateX(10px); } 100% { transform: translateY(0) translateX(0); } }
        .prt { animation: prt-fade 4s infinite ease-in-out, prt-float 6s infinite ease-in-out; }
        
</style>

<!-- BACKGROUNDS -->
<g id="bg0_1150"><rect width="512" height="512" fill="#1e1b4b"/><g class="bgGrid" opacity="0.2546379160601646" style="animation-duration:2.335889095440507s"><line x1="-80" y1="0" x2="-80" y2="512" stroke="#6366f1" stroke-width="1.3237908079754561"/><line x1="0" y1="-80" x2="512" y2="-80" stroke="#6366f1" stroke-width="1.739803243195638"/><line x1="-47.7304092887789" y1="0" x2="-47.7304092887789" y2="512" stroke="#6366f1" stroke-width="1.3853324714582413"/><line x1="0" y1="-47.7304092887789" x2="512" y2="-47.7304092887789" stroke="#6366f1" stroke-width="1.68081901432015"/><line x1="-15.460818577557802" y1="0" x2="-15.460818577557802" y2="512" stroke="#6366f1" stroke-width="1.3235346337314695"/><line x1="0" y1="-15.460818577557802" x2="512" y2="-15.460818577557802" stroke="#6366f1" stroke-width="1.0861511444672942"/><line x1="16.808772133663297" y1="0" x2="16.808772133663297" y2="512" stroke="#6366f1" stroke-width="1.93751349626109"/><line x1="0" y1="16.808772133663297" x2="512" y2="16.808772133663297" stroke="#6366f1" stroke-width="1.7477876995690167"/><line x1="49.078362844884396" y1="0" x2="49.078362844884396" y2="512" stroke="#6366f1" stroke-width="1.0617489421274513"/><line x1="0" y1="49.078362844884396" x2="512" y2="49.078362844884396" stroke="#6366f1" stroke-width="1.427073292201385"/><line x1="81.3479535561055" y1="0" x2="81.3479535561055" y2="512" stroke="#6366f1" stroke-width="1.332362393848598"/><line x1="0" y1="81.3479535561055" x2="512" y2="81.3479535561055" stroke="#6366f1" stroke-width="1.3557531391270459"/><line x1="113.6175442673266" y1="0" x2="113.6175442673266" y2="512" stroke="#6366f1" stroke-width="1.5789610121864825"/><line x1="0" y1="113.6175442673266" x2="512" y2="113.6175442673266" stroke="#6366f1" stroke-width="1.7022708014119416"/><line x1="145.8871349785477" y1="0" x2="145.8871349785477" y2="512" stroke="#6366f1" stroke-width="1.1371761539485306"/><line x1="0" y1="145.8871349785477" x2="512" y2="145.8871349785477" stroke="#6366f1" stroke-width="1.2773466005455703"/><line x1="178.1567256897688" y1="0" x2="178.1567256897688" y2="512" stroke="#6366f1" stroke-width="1.4847957780584693"/><line x1="0" y1="178.1567256897688" x2="512" y2="178.1567256897688" stroke="#6366f1" stroke-width="1.8916326875332743"/><line x1="210.4263164009899" y1="0" x2="210.4263164009899" y2="512" stroke="#6366f1" stroke-width="1.703069634269923"/><line x1="0" y1="210.4263164009899" x2="512" y2="210.4263164009899" stroke="#6366f1" stroke-width="1.5728022230323404"/><line x1="242.695907112211" y1="0" x2="242.695907112211" y2="512" stroke="#6366f1" stroke-width="1.5332189032342285"/><line x1="0" y1="242.695907112211" x2="512" y2="242.695907112211" stroke="#6366f1" stroke-width="1.0361269880086184"/><line x1="274.9654978234321" y1="0" x2="274.9654978234321" y2="512" stroke="#6366f1" stroke-width="1.403265779837966"/><line x1="0" y1="274.9654978234321" x2="512" y2="274.9654978234321" stroke="#6366f1" stroke-width="1.0423398416023701"/><line x1="307.2350885346532" y1="0" x2="307.2350885346532" y2="512" stroke="#6366f1" stroke-width="1.363232054747641"/><line x1="0" y1="307.2350885346532" x2="512" y2="307.2350885346532" stroke="#6366f1" stroke-width="1.9596084046643227"/><line x1="339.5046792458743" y1="0" x2="339.5046792458743" y2="512" stroke="#6366f1" stroke-width="1.6845476457383484"/><line x1="0" y1="339.5046792458743" x2="512" y2="339.5046792458743" stroke="#6366f1" stroke-width="1.4868466758634895"/><line x1="371.7742699570954" y1="0" x2="371.7742699570954" y2="512" stroke="#6366f1" stroke-width="1.5126242320984602"/><line x1="0" y1="371.7742699570954" x2="512" y2="371.7742699570954" stroke="#6366f1" stroke-width="1.0439250690396875"/><line x1="404.0438606683165" y1="0" x2="404.0438606683165" y2="512" stroke="#6366f1" stroke-width="1.675502035068348"/><line x1="0" y1="404.0438606683165" x2="512" y2="404.0438606683165" stroke="#6366f1" stroke-width="1.3900148565880954"/><line x1="436.3134513795376" y1="0" x2="436.3134513795376" y2="512" stroke="#6366f1" stroke-width="1.4781832078006119"/><line x1="0" y1="436.3134513795376" x2="512" y2="436.3134513795376" stroke="#6366f1" stroke-width="1.9438660054001957"/><line x1="468.5830420907587" y1="0" x2="468.5830420907587" y2="512" stroke="#6366f1" stroke-width="1.3596699219197035"/><line x1="0" y1="468.5830420907587" x2="512" y2="468.5830420907587" stroke="#6366f1" stroke-width="1.4869461294729263"/><line x1="500.8526328019798" y1="0" x2="500.8526328019798" y2="512" stroke="#6366f1" stroke-width="1.5043087131343782"/><line x1="0" y1="500.8526328019798" x2="512" y2="500.8526328019798" stroke="#6366f1" stroke-width="1.3816999711561948"/><line x1="533.1222235132009" y1="0" x2="533.1222235132009" y2="512" stroke="#6366f1" stroke-width="1.97598279081285"/><line x1="0" y1="533.1222235132009" x2="512" y2="533.1222235132009" stroke="#6366f1" stroke-width="1.2511910521425307"/><line x1="565.391814224422" y1="0" x2="565.391814224422" y2="512" stroke="#6366f1" stroke-width="1.726904486771673"/><line x1="0" y1="565.391814224422" x2="512" y2="565.391814224422" stroke="#6366f1" stroke-width="1.9156583433505148"/></g></g>
<g id="bg1_1150" style="display:none"><rect width="512" height="512" fill="#4c0519"/><g class="bgGrid" opacity="0.17587679689750077" style="animation-duration:3.1845548981800675s"><line x1="-80" y1="0" x2="-80" y2="512" stroke="#f43f5e" stroke-width="1.5295717315748334"/><line x1="0" y1="-80" x2="512" y2="-80" stroke="#f43f5e" stroke-width="1.2550352443940938"/><line x1="-57.2299103718251" y1="0" x2="-57.2299103718251" y2="512" stroke="#f43f5e" stroke-width="1.8049299004487693"/><line x1="0" y1="-57.2299103718251" x2="512" y2="-57.2299103718251" stroke="#f43f5e" stroke-width="1.669816916109994"/><line x1="-34.4598207436502" y1="0" x2="-34.4598207436502" y2="512" stroke="#f43f5e" stroke-width="1.4786603087559342"/><line x1="0" y1="-34.4598207436502" x2="512" y2="-34.4598207436502" stroke="#f43f5e" stroke-width="1.2952942394185811"/><line x1="-11.689731115475297" y1="0" x2="-11.689731115475297" y2="512" stroke="#f43f5e" stroke-width="1.163476058281958"/><line x1="0" y1="-11.689731115475297" x2="512" y2="-11.689731115475297" stroke="#f43f5e" stroke-width="1.5414758450351655"/><line x1="11.080358512699604" y1="0" x2="11.080358512699604" y2="512" stroke="#f43f5e" stroke-width="1.3482036236673594"/><line x1="0" y1="11.080358512699604" x2="512" y2="11.080358512699604" stroke="#f43f5e" stroke-width="1.6939577031880617"/><line x1="33.850448140874505" y1="0" x2="33.850448140874505" y2="512" stroke="#f43f5e" stroke-width="1.6608353429473937"/><line x1="0" y1="33.850448140874505" x2="512" y2="33.850448140874505" stroke="#f43f5e" stroke-width="1.177412782330066"/><line x1="56.620537769049406" y1="0" x2="56.620537769049406" y2="512" stroke="#f43f5e" stroke-width="1.313557543559"/><line x1="0" y1="56.620537769049406" x2="512" y2="56.620537769049406" stroke="#f43f5e" stroke-width="1.4454926340840757"/><line x1="79.3906273972243" y1="0" x2="79.3906273972243" y2="512" stroke="#f43f5e" stroke-width="1.5589103330858052"/><line x1="0" y1="79.3906273972243" x2="512" y2="79.3906273972243" stroke="#f43f5e" stroke-width="1.678897918201983"/><line x1="102.16071702539921" y1="0" x2="102.16071702539921" y2="512" stroke="#f43f5e" stroke-width="1.768285719677806"/><line x1="0" y1="102.16071702539921" x2="512" y2="102.16071702539921" stroke="#f43f5e" stroke-width="1.134068951709196"/><line x1="124.93080665357411" y1="0" x2="124.93080665357411" y2="512" stroke="#f43f5e" stroke-width="1.069293440785259"/><line x1="0" y1="124.93080665357411" x2="512" y2="124.93080665357411" stroke="#f43f5e" stroke-width="1.2949979081749916"/><line x1="147.700896281749" y1="0" x2="147.700896281749" y2="512" stroke="#f43f5e" stroke-width="1.600098225288093"/><line x1="0" y1="147.700896281749" x2="512" y2="147.700896281749" stroke="#f43f5e" stroke-width="1.9229100672528148"/><line x1="170.4709859099239" y1="0" x2="170.4709859099239" y2="512" stroke="#f43f5e" stroke-width="1.0922502826433629"/><line x1="0" y1="170.4709859099239" x2="512" y2="170.4709859099239" stroke="#f43f5e" stroke-width="1.254312782548368"/><line x1="193.2410755380988" y1="0" x2="193.2410755380988" y2="512" stroke="#f43f5e" stroke-width="1.0876259873621166"/><line x1="0" y1="193.2410755380988" x2="512" y2="193.2410755380988" stroke="#f43f5e" stroke-width="1.9515740016940981"/><line x1="216.0111651662737" y1="0" x2="216.0111651662737" y2="512" stroke="#f43f5e" stroke-width="1.6558333605062217"/><line x1="0" y1="216.0111651662737" x2="512" y2="216.0111651662737" stroke="#f43f5e" stroke-width="1.904645748436451"/><line x1="238.7812547944486" y1="0" x2="238.7812547944486" y2="512" stroke="#f43f5e" stroke-width="1.6340580726973712"/><line x1="0" y1="238.7812547944486" x2="512" y2="238.7812547944486" stroke="#f43f5e" stroke-width="1.4215313289314508"/><line x1="261.5513444226235" y1="0" x2="261.5513444226235" y2="512" stroke="#f43f5e" stroke-width="1.8151953960768878"/><line x1="0" y1="261.5513444226235" x2="512" y2="261.5513444226235" stroke="#f43f5e" stroke-width="1.5057877572253346"/><line x1="284.3214340507984" y1="0" x2="284.3214340507984" y2="512" stroke="#f43f5e" stroke-width="1.8042449681088328"/><line x1="0" y1="284.3214340507984" x2="512" y2="284.3214340507984" stroke="#f43f5e" stroke-width="1.218302947934717"/><line x1="307.0915236789733" y1="0" x2="307.0915236789733" y2="512" stroke="#f43f5e" stroke-width="1.6206273066345602"/><line x1="0" y1="307.0915236789733" x2="512" y2="307.0915236789733" stroke="#f43f5e" stroke-width="1.8296977921854705"/><line x1="329.8616133071482" y1="0" x2="329.8616133071482" y2="512" stroke="#f43f5e" stroke-width="1.5214601198676974"/><line x1="0" y1="329.8616133071482" x2="512" y2="329.8616133071482" stroke="#f43f5e" stroke-width="1.6885460917837918"/><line x1="352.6317029353231" y1="0" x2="352.6317029353231" y2="512" stroke="#f43f5e" stroke-width="1.7923519392497838"/><line x1="0" y1="352.6317029353231" x2="512" y2="352.6317029353231" stroke="#f43f5e" stroke-width="1.6532900547608733"/><line x1="375.401792563498" y1="0" x2="375.401792563498" y2="512" stroke="#f43f5e" stroke-width="1.609605646925047"/><line x1="0" y1="375.401792563498" x2="512" y2="375.401792563498" stroke="#f43f5e" stroke-width="1.497447065077722"/><line x1="398.1718821916729" y1="0" x2="398.1718821916729" y2="512" stroke="#f43f5e" stroke-width="1.8754561082459986"/><line x1="0" y1="398.1718821916729" x2="512" y2="398.1718821916729" stroke="#f43f5e" stroke-width="1.2722325650975108"/><line x1="420.9419718198478" y1="0" x2="420.9419718198478" y2="512" stroke="#f43f5e" stroke-width="1.52944137272425"/><line x1="0" y1="420.9419718198478" x2="512" y2="420.9419718198478" stroke="#f43f5e" stroke-width="1.1760751930996776"/><line x1="443.7120614480227" y1="0" x2="443.7120614480227" y2="512" stroke="#f43f5e" stroke-width="1.3514851634390652"/><line x1="0" y1="443.7120614480227" x2="512" y2="443.7120614480227" stroke="#f43f5e" stroke-width="1.8539027355145663"/><line x1="466.4821510761976" y1="0" x2="466.4821510761976" y2="512" stroke="#f43f5e" stroke-width="1.243785488884896"/><line x1="0" y1="466.4821510761976" x2="512" y2="466.4821510761976" stroke="#f43f5e" stroke-width="1.4375562388449907"/><line x1="489.2522407043725" y1="0" x2="489.2522407043725" y2="512" stroke="#f43f5e" stroke-width="1.7953644637018442"/><line x1="0" y1="489.2522407043725" x2="512" y2="489.2522407043725" stroke="#f43f5e" stroke-width="1.3399596272502095"/><line x1="512.0223303325474" y1="0" x2="512.0223303325474" y2="512" stroke="#f43f5e" stroke-width="1.0412586703896523"/><line x1="0" y1="512.0223303325474" x2="512" y2="512.0223303325474" stroke="#f43f5e" stroke-width="1.0583175581414253"/><line x1="534.7924199607223" y1="0" x2="534.7924199607223" y2="512" stroke="#f43f5e" stroke-width="1.133879107190296"/><line x1="0" y1="534.7924199607223" x2="512" y2="534.7924199607223" stroke="#f43f5e" stroke-width="1.6485598396975547"/><line x1="557.5625095888972" y1="0" x2="557.5625095888972" y2="512" stroke="#f43f5e" stroke-width="1.8959218219388276"/><line x1="0" y1="557.5625095888972" x2="512" y2="557.5625095888972" stroke="#f43f5e" stroke-width="1.1422841344028711"/><line x1="580.3325992170721" y1="0" x2="580.3325992170721" y2="512" stroke="#f43f5e" stroke-width="1.6137444518972188"/><line x1="0" y1="580.3325992170721" x2="512" y2="580.3325992170721" stroke="#f43f5e" stroke-width="1.944718586979434"/></g></g>

<!-- COMMON STATIC BOTTOM LAYERS -->
<rect x="366" y="450" width="1.5" height="1.5" fill="#cbd5e1" class="prt" style="animation-duration: 3s, 7s; animation-delay: -3s, -3s; filter: blur(0.5px);"/><circle cx="353" cy="187" r="0.75" fill="#cbd5e1" class="prt" style="animation-duration: 4s, 8s; animation-delay: -3.1s, -3.1s; filter: blur(0.5px);"/><rect x="340" y="436" width="1.5" height="1.5" fill="#cbd5e1" class="prt" style="animation-duration: 5s, 9s; animation-delay: -3.2s, -3.2s; filter: blur(0.5px);"/><circle cx="327" cy="173" r="0.75" fill="#cbd5e1" class="prt" style="animation-duration: 6s, 10s; animation-delay: -3.3s, -3.3s; filter: blur(0.5px);"/><rect x="314" y="422" width="1.5" height="1.5" fill="#cbd5e1" class="prt" style="animation-duration: 7s, 11s; animation-delay: -3.4s, -3.4s; filter: blur(0.5px);"/><circle cx="301" cy="159" r="0.75" fill="#cbd5e1" class="prt" style="animation-duration: 3s, 5s; animation-delay: -3.5s, -3.5s; filter: blur(0.5px);"/><rect x="288" y="408" width="1.5" height="1.5" fill="#cbd5e1" class="prt" style="animation-duration: 4s, 6s; animation-delay: -3.6s, -3.6s; filter: blur(0.5px);"/><circle cx="275" cy="145" r="0.75" fill="#cbd5e1" class="prt" style="animation-duration: 5s, 7s; animation-delay: -3.7s, -3.7s; filter: blur(0.5px);"/><rect x="262" y="394" width="1.5" height="1.5" fill="#cbd5e1" class="prt" style="animation-duration: 6s, 8s; animation-delay: -3.8s, -3.8s; filter: blur(0.5px);"/><circle cx="249" cy="131" r="0.75" fill="#cbd5e1" class="prt" style="animation-duration: 7s, 9s; animation-delay: -3.9s, -3.9s; filter: blur(0.5px);"/><rect x="236" y="380" width="1.5" height="1.5" fill="#cbd5e1" class="prt" style="animation-duration: 3s, 10s; animation-delay: 0s, 0s; filter: blur(0.5px);"/><circle cx="223" cy="117" r="0.75" fill="#cbd5e1" class="prt" style="animation-duration: 4s, 11s; animation-delay: -0.1s, -0.1s; filter: blur(0.5px);"/>

<g style="filter:drop-shadow(0px 18px 30px rgba(0,0,0,0.65))">
  <path d="M180,512 L180,280 Q180,100 300,100 Q360,100 380,160 Q390,180 380,210 L440,250 L400,280 L420,300 L410,350 L310,380 L310,512 Z" fill="#e3b593"/>
  <path d="M180,512 L180,280 Q180,100 300,100 Q360,100 380,160 Q390,180 380,210 L440,250 L400,280 L420,300 L410,350 L310,380 L310,512 Z" fill="#f8d5b8" opacity="0.2"/>
  <path d="M180,512 L180,280 Q180,100 300,100 Q360,100 380,160 Q390,180 380,210 L440,250 L400,280 L420,300 L410,350 L310,380 L310,512 Z" fill="#c78f68" opacity="0.15"/>
  <path d="M180,512 L180,280 Q180,100 300,100 Q360,100 380,160 Q390,180 380,210 L440,250 L400,280 L420,300 L410,350 L310,380 L310,512 Z" fill="none" stroke="#f8d5b8" stroke-width="7" stroke-linejoin="round" opacity="0.4"/>
</g>

  <path d="M190,512 Q180,130 300,105" fill="none" stroke="white" stroke-opacity="0.1" stroke-width="8" stroke-linecap="round"/>
<polygon points="400,280 440,340 420,430 310,440 310,350" fill="#1e293b" opacity="0.9"/>

<g style="filter:drop-shadow(0 6px 14px rgba(0,0,0,0.55))"><path d="M160,145 Q290,45 400,135 Z" fill="#e3b593" stroke="#c78f68" stroke-width="3"/>
<polygon points="340,130 440,150 435,165 330,150" fill="#cbd5e1" stroke="#64748b" stroke-width="3"/></g>
<ellipse cx="250" cy="250" rx="15" ry="25" fill="#e3b593" stroke="#c78f68" stroke-width="1"/>
<ellipse cx="250" cy="250" rx="5" ry="12" fill="#c78f68"/><circle cx="250" cy="270" r="10" fill="none" stroke="#10b981" stroke-width="4" style="filter:drop-shadow(0 0 5px #10b981)"/>

<g class=""><ellipse cx="350" cy="210" rx="26" ry="16" fill="white"/>
<g class="">
  <circle cx="358" cy="210" r="12" fill="#10b981"/>
  <circle cx="358" cy="210" r="8" fill="#047857"/>
  <circle cx="358" cy="210" r="5" fill="#020617"/>
  <circle cx="354" cy="206" r="3" fill="white"/>
</g></g>


<!-- CLOTHING -->
<g id="cloth0_1150"><path d="M80,440 L256,512 L0,512 Z" fill="#be123c"/><path d="M432,440 L256,512 L512,512 Z" fill="#be123c"/>
                <path d="M256,460 Q200,460 180,500 M256,460 Q312,460 332,500 M256,500 L256,512" fill="none" stroke="rgba(0,0,0,0.3)" stroke-width="3"/></g>
<g id="cloth1_1150" style="display:none"><path d="M140,470 L372,470 L400,512 L112,512 Z" fill="#451a03"/><path d="M140,470 L155,430 L170,470 Z">
                  <animate attributeName="fill" values="hsl(0,80%,60%); hsl(120,80%,60%); hsl(240,80%,60%); hsl(0,80%,60%)" dur="4s" repeatCount="indefinite"/>
                  <animate attributeName="d" values="M140,470 L155,430 L170,470 Z; M140,470 L155,450 L170,470 Z; M140,470 L155,430 L170,470 Z" dur="2s" repeatCount="indefinite"/>
                </path><path d="M173,470 L188,430 L203,470 Z">
                  <animate attributeName="fill" values="hsl(0,80%,60%); hsl(120,80%,60%); hsl(240,80%,60%); hsl(0,80%,60%)" dur="5s" repeatCount="indefinite"/>
                  <animate attributeName="d" values="M173,470 L188,430 L203,470 Z; M173,470 L188,450 L203,470 Z; M173,470 L188,430 L203,470 Z" dur="2.4s" repeatCount="indefinite"/>
                </path><path d="M206,470 L221,430 L236,470 Z">
                  <animate attributeName="fill" values="hsl(0,80%,60%); hsl(120,80%,60%); hsl(240,80%,60%); hsl(0,80%,60%)" dur="6s" repeatCount="indefinite"/>
                  <animate attributeName="d" values="M206,470 L221,430 L236,470 Z; M206,470 L221,450 L236,470 Z; M206,470 L221,430 L236,470 Z" dur="2.8s" repeatCount="indefinite"/>
                </path><path d="M239,470 L254,430 L269,470 Z">
                  <animate attributeName="fill" values="hsl(0,80%,60%); hsl(120,80%,60%); hsl(240,80%,60%); hsl(0,80%,60%)" dur="7s" repeatCount="indefinite"/>
                  <animate attributeName="d" values="M239,470 L254,430 L269,470 Z; M239,470 L254,450 L269,470 Z; M239,470 L254,430 L269,470 Z" dur="3.2s" repeatCount="indefinite"/>
                </path><path d="M272,470 L287,430 L302,470 Z">
                  <animate attributeName="fill" values="hsl(0,80%,60%); hsl(120,80%,60%); hsl(240,80%,60%); hsl(0,80%,60%)" dur="8s" repeatCount="indefinite"/>
                  <animate attributeName="d" values="M272,470 L287,430 L302,470 Z; M272,470 L287,450 L302,470 Z; M272,470 L287,430 L302,470 Z" dur="3.6s" repeatCount="indefinite"/>
                </path><path d="M305,470 L320,430 L335,470 Z">
                  <animate attributeName="fill" values="hsl(0,80%,60%); hsl(120,80%,60%); hsl(240,80%,60%); hsl(0,80%,60%)" dur="9s" repeatCount="indefinite"/>
                  <animate attributeName="d" values="M305,470 L320,430 L335,470 Z; M305,470 L320,450 L335,470 Z; M305,470 L320,430 L335,470 Z" dur="4s" repeatCount="indefinite"/>
                </path><path d="M338,470 L353,430 L368,470 Z">
                  <animate attributeName="fill" values="hsl(0,80%,60%); hsl(120,80%,60%); hsl(240,80%,60%); hsl(0,80%,60%)" dur="10s" repeatCount="indefinite"/>
                  <animate attributeName="d" values="M338,470 L353,430 L368,470 Z; M338,470 L353,450 L368,470 Z; M338,470 L353,430 L368,470 Z" dur="4.4s" repeatCount="indefinite"/>
                </path><path d="M371,470 L386,430 L401,470 Z">
                  <animate attributeName="fill" values="hsl(0,80%,60%); hsl(120,80%,60%); hsl(240,80%,60%); hsl(0,80%,60%)" dur="11s" repeatCount="indefinite"/>
                  <animate attributeName="d" values="M371,470 L386,430 L401,470 Z; M371,470 L386,450 L401,470 Z; M371,470 L386,430 L401,470 Z" dur="4.800000000000001s" repeatCount="indefinite"/>
                </path></g>

<!-- COMMON STATIC MIDDLE LAYERS -->
<g class="nwFloat" style="filter:drop-shadow(0 3px 8px rgba(0,0,0,0.8))"><path d="M160,415 L330,425 L320,475 L150,465 Z" fill="#cbd5e1"/></g>


<!-- WATCH + HAND -->
<g id="watch0_1150"></g>
<g id="watch1_1150" style="display:none"><path d="m 144.02119,313.7196 c 2.588,-1.782 16.34,-10.254 59.473,-36.631 19.525,-11.94 43.825,-26.888 54,-33.217 24.315,-15.124 23.599,-14.792 31.95,-14.792 h 7.05 l 0.005,-6.75 c 0.006,-8.154 0.516,-8.863 13.995,-19.473 16.069,-12.647 22.958,-21.032 29.83,-36.309 2.32,-5.154 5.148,-9.81 6.651,-10.95 2.609,-1.975 2.628,-1.975 6.302,0 9.09,4.888 11.368,18.47 5.759,34.324 -3.753,10.606 -8.187,15.834 -16.17,19.068 -3.23,1.308 -6.188,2.65 -6.573,2.984 -0.386,0.333 13.494,0.47 30.844,0.303 35.22,-0.339 35.162,-0.348 37.384,6.384 1.336,4.05 0.846,12.946 -0.805,14.597 -1.837,1.837 -9.273,2.733 -23.045,2.778 -12.137,0.04 -13.294,0.2 -12.989,1.794 0.3,1.564 2.195,1.803 17.824,2.25 9.618,0.275 18.038,0.856 18.71,1.292 2.097,1.358 3.58,8.208 2.842,13.127 -1.121,7.48 -2.654,8.017 -24.019,8.427 -9.925,0.191 -18.27,0.567 -18.545,0.837 -0.275,0.269 0.562,1.35 1.86,2.403 2.083,1.688 4.067,1.914 16.796,1.914 13.993,0 14.51,0.075 16.89,2.455 2.663,2.663 2.99,5.075 1.443,10.645 -1.917,6.9 -3.086,7.298 -21.004,7.146 -15.975,-0.136 -18.385,0.363 -15.949,3.298 0.864,1.04 3.384,1.458 8.836,1.462 10.411,0.008 14.93,1.357 15.772,4.71 0.523,2.084 0.1,3.108 -2.048,4.955 -3.297,2.836 -7.713,2.955 -31.096,0.837 -8.8,-0.797 -25.064,-1.463 -36.143,-1.479 -22.676,-0.033 -21.357,0.468 -21.357,-8.11 v -4.919 h -5.441 c -2.993,0 -5.713,0.44 -6.046,0.98 -0.79,1.276 -28.353,22.364 -31.197,23.866 -1.575,0.832 -17.748,1.154 -57.973,1.154 -47.325,0 -55.489,-0.206 -53.816,-1.36" transform="translate(101, 229) scale(0.9, 0.9)" fill="#e3b593" stroke="#c78f68" stroke-width="1"/>
<g transform="translate(350, 467) scale(0.2625, 0.2625) translate(-256, -256)">
    <path d="M 196.54567946586758 113.19701545313 L 196.54567946586758 70.89529740530998 L 315.4543205341324 70.89529740530998 L 315.4543205341324 113.19701545313 Z M 196.54567946586758 398.80298454687 L 196.54567946586758 441.10470259469 L 315.4543205341324 441.10470259469 L 315.4543205341324 398.80298454687 Z M 433.17402044218034 256 A 177.17402044218034 177.17402044218034 0 1 0 78.82597955781966 256 A 177.17402044218034 177.17402044218034 0 1 0 433.17402044218034 256 Z" fill="#fbbf24" stroke="#d97706" stroke-width="2" />
    <rect x="396" y="241" width="60" height="30" fill="#fbbf24" stroke="#d97706" stroke-width="1" />
    <circle cx="256" cy="256" r="174.20167559059337" fill="#fbbf24" stroke="#d97706" stroke-width="2" /><g transform="rotate(0, 256, 256)"><path d="M 400.7501421631314 256 Q 413.7501421631314 241 420.20167559059337 251 Q 413.7501421631314 271 400.7501421631314 256" fill="none" stroke="#d97706" stroke-width="1" /></g><g transform="rotate(22.5, 256, 256)"><path d="M 400.7501421631314 256 Q 413.7501421631314 241 420.20167559059337 251 Q 413.7501421631314 271 400.7501421631314 256" fill="none" stroke="#d97706" stroke-width="1" /></g><g transform="rotate(45, 256, 256)"><path d="M 400.7501421631314 256 Q 413.7501421631314 241 420.20167559059337 251 Q 413.7501421631314 271 400.7501421631314 256" fill="none" stroke="#d97706" stroke-width="1" /></g><g transform="rotate(67.5, 256, 256)"><path d="M 400.7501421631314 256 Q 413.7501421631314 241 420.20167559059337 251 Q 413.7501421631314 271 400.7501421631314 256" fill="none" stroke="#d97706" stroke-width="1" /></g><g transform="rotate(90, 256, 256)"><path d="M 400.7501421631314 256 Q 413.7501421631314 241 420.20167559059337 251 Q 413.7501421631314 271 400.7501421631314 256" fill="none" stroke="#d97706" stroke-width="1" /></g><g transform="rotate(112.5, 256, 256)"><path d="M 400.7501421631314 256 Q 413.7501421631314 241 420.20167559059337 251 Q 413.7501421631314 271 400.7501421631314 256" fill="none" stroke="#d97706" stroke-width="1" /></g><g transform="rotate(135, 256, 256)"><path d="M 400.7501421631314 256 Q 413.7501421631314 241 420.20167559059337 251 Q 413.7501421631314 271 400.7501421631314 256" fill="none" stroke="#d97706" stroke-width="1" /></g><g transform="rotate(157.5, 256, 256)"><path d="M 400.7501421631314 256 Q 413.7501421631314 241 420.20167559059337 251 Q 413.7501421631314 271 400.7501421631314 256" fill="none" stroke="#d97706" stroke-width="1" /></g><g transform="rotate(180, 256, 256)"><path d="M 400.7501421631314 256 Q 413.7501421631314 241 420.20167559059337 251 Q 413.7501421631314 271 400.7501421631314 256" fill="none" stroke="#d97706" stroke-width="1" /></g><g transform="rotate(202.5, 256, 256)"><path d="M 400.7501421631314 256 Q 413.7501421631314 241 420.20167559059337 251 Q 413.7501421631314 271 400.7501421631314 256" fill="none" stroke="#d97706" stroke-width="1" /></g><g transform="rotate(225, 256, 256)"><path d="M 400.7501421631314 256 Q 413.7501421631314 241 420.20167559059337 251 Q 413.7501421631314 271 400.7501421631314 256" fill="none" stroke="#d97706" stroke-width="1" /></g><g transform="rotate(247.5, 256, 256)"><path d="M 400.7501421631314 256 Q 413.7501421631314 241 420.20167559059337 251 Q 413.7501421631314 271 400.7501421631314 256" fill="none" stroke="#d97706" stroke-width="1" /></g><g transform="rotate(270, 256, 256)"><path d="M 400.7501421631314 256 Q 413.7501421631314 241 420.20167559059337 251 Q 413.7501421631314 271 400.7501421631314 256" fill="none" stroke="#d97706" stroke-width="1" /></g><g transform="rotate(292.5, 256, 256)"><path d="M 400.7501421631314 256 Q 413.7501421631314 241 420.20167559059337 251 Q 413.7501421631314 271 400.7501421631314 256" fill="none" stroke="#d97706" stroke-width="1" /></g><g transform="rotate(315, 256, 256)"><path d="M 400.7501421631314 256 Q 413.7501421631314 241 420.20167559059337 251 Q 413.7501421631314 271 400.7501421631314 256" fill="none" stroke="#d97706" stroke-width="1" /></g><g transform="rotate(337.5, 256, 256)"><path d="M 400.7501421631314 256 Q 413.7501421631314 241 420.20167559059337 251 Q 413.7501421631314 271 400.7501421631314 256" fill="none" stroke="#d97706" stroke-width="1" /></g>
    <g transform="translate(256,256)">
        <circle class="watch-face" r="142.7501421631314" fill="#1e3a8a" stroke="#d97706" stroke-width="4" />
    </g>
    <g clip-path="url(#cp_1150_watchAlt)">
        <circle cx="186.01165545079857" cy="256" r="38.425894018728286" fill="black" fill-opacity="0.1" stroke="white" stroke-opacity="0.2" stroke-width="1" /><circle cx="320.0013436670415" cy="256" r="38.425894018728286" fill="black" fill-opacity="0.1" stroke="white" stroke-opacity="0.2" stroke-width="1" /><circle cx="256" cy="318.872394642327" r="38.425894018728286" fill="black" fill-opacity="0.1" stroke="white" stroke-opacity="0.2" stroke-width="1" />
    </g>
    <circle cx="256" cy="137.92658556392416" r="6.251471024937928" fill="#fef08a" /><circle cx="315.0367072180379" cy="153.74542358679005" r="2.2340051918290555" fill="#fef08a" /><circle cx="358.2545764132099" cy="196.96329278196208" r="3.7406358029693365" fill="#fef08a" /><circle cx="374.07341443607584" cy="256" r="7.421393413096666" fill="#fef08a" /><circle cx="358.25457641321" cy="315.0367072180379" r="2.806058431509882" fill="#fef08a" /><circle cx="315.0367072180379" cy="358.25457641321" r="2.4936846904456615" fill="#fef08a" /><circle cx="256" cy="374.07341443607584" r="5.974834052845836" fill="#fef08a" /><circle cx="196.9632927819621" cy="358.25457641321" r="2.4010443659499288" fill="#fef08a" /><circle cx="153.74542358679008" cy="315.036707218038" r="2.2269315272569656" fill="#fef08a" /><circle cx="137.92658556392416" cy="256" r="6.441953354980797" fill="#fef08a" /><circle cx="153.74542358679008" cy="196.96329278196208" r="2.815480210352689" fill="#fef08a" /><circle cx="196.96329278196202" cy="153.74542358679008" r="2.374315842986107" fill="#fef08a" />
    <text x="256" y="191" fill="#fef08a" font-family="Georgia, serif" font-size="22" font-style="italic" text-anchor="middle" dominant-baseline="middle" filter="url(#tg_1150_watchAlt)">LuxuryPunks</text>
    <g transform="translate(256,256)">
        <g class="hr-hand" transform="rotate(180.048875)">
            <animateTransform attributeName="transform" type="rotate" from="180.048875" to="540.048875" dur="43200s" repeatCount="indefinite"/>
            <polygon points="-9.971505180001259,20 0,-80 9.971505180001259,20" fill="#ef4444" stroke="#d97706" stroke-width="1"/>
        </g>
        <g class="mn-hand" transform="rotate(0.5865)">
            <animateTransform attributeName="transform" type="rotate" from="0.5865" to="360.5865" dur="3600s" repeatCount="indefinite"/>
            <polygon points="-8.306272566318512,20 0,-120 8.306272566318512,20" fill="#ef4444" stroke="#d97706" stroke-width="1"/>
        </g>
        <g class="sc-hand" transform="rotate(35.19)">
            <animateTransform attributeName="transform" type="rotate" from="35.19" to="395.19" dur="60s" repeatCount="indefinite"/>
            <rect x="-2" y="-135" width="4" height="160" fill="#ef4444" />
        </g>
    </g>
</g></g>

<!-- COMMON STATIC TOP LAYERS -->

<g transform="rotate(-90, 10, 450)">
    <text x="10" y="450" class="tm-text">1150 made by LuxuryEditionz</text>
    <text x="10" y="450" fill="url(#dp_1150)" style="font-family:'Courier New', monospace; font-size:4.5px; font-weight:bold; opacity:0.8">1150 made by LuxuryEditionz</text>
</g>

<!-- JS DYNAMIC SYNCHRONIZER SCRIPT -->
<script type="text/javascript">
<![CDATA[
(function(){"use strict";
try{
  var bg0 = document.getElementById('bg0_1150');
  var bg1 = document.getElementById('bg1_1150');
  var cloth0 = document.getElementById('cloth0_1150');
  var cloth1 = document.getElementById('cloth1_1150');
  var watch0 = document.getElementById('watch0_1150');
  var watch1 = document.getElementById('watch1_1150');

  // === 1. MULTI-CLICK DYNAMIC TRAIT CUSTOMIZATION ===
  var bgState = 0;
  var clothState = 0;
  var watchState = 0;

  var clickCount = 0;
  var clickTimer = null;

  var svgEl = document.getElementById('punk-svg-1150');
  if (svgEl) {
      svgEl.addEventListener('click', function(e) {
          // Ignore clicks specifically targeting the watch face color toggle
          if (e.target && e.target.getAttribute && e.target.getAttribute('class') === 'watch-face') return;

          clickCount++;
          clearTimeout(clickTimer);

          clickTimer = setTimeout(function() {
              if (clickCount === 1) {
                  bgState = 1 - bgState;
                  if (bg0) bg0.style.display = bgState ? 'none' : '';
                  if (bg1) bg1.style.display = bgState ? '' : 'none';
              } else if (clickCount === 2) {
                  clothState = 1 - clothState;
                  if (cloth0) cloth0.style.display = clothState ? 'none' : '';
                  if (cloth1) cloth1.style.display = clothState ? '' : 'none';
              } else if (clickCount >= 3) {
                  watchState = 1 - watchState;
                  if (watch0) watch0.style.display = watchState ? 'none' : '';
                  if (watch1) watch1.style.display = watchState ? '' : 'none';
                  if (watchState) tick(); // Force immediate real-time update when watch becomes visible
              }
              clickCount = 0;
          }, 400); // 400ms multi-tap window for mobile/pc
      });
  }

  // === 2. REAL-TIME WATCH CLOCK SYNC ===
  var hs = [].slice.call(document.querySelectorAll('#punk-svg-1150 .hr-hand'));
  var ms = [].slice.call(document.querySelectorAll('#punk-svg-1150 .mn-hand'));
  var ss = [].slice.call(document.querySelectorAll('#punk-svg-1150 .sc-hand'));

  // Strip SMIL animations so JS has exclusive control
  hs.concat(ms, ss).forEach(function(el) {
    var a = el.querySelector('animateTransform');
    if (a) a.parentNode.removeChild(a);
  });

  function tick() {
    var d = new Date();
    var sec = d.getSeconds();
    var min = d.getMinutes();
    var hr = d.getHours();
    var sRot = sec * 6;
    var mRot = min * 6 + sec * 0.1;
    var hRot = (hr % 12) * 30 + min * 0.5;
    // Use SVG attribute syntax (no 'deg' unit) — reliable on hidden elements
    ss.forEach(function(e) { e.setAttribute('transform', 'rotate(' + sRot + ')'); });
    ms.forEach(function(e) { e.setAttribute('transform', 'rotate(' + mRot + ')'); });
    hs.forEach(function(e) { e.setAttribute('transform', 'rotate(' + hRot + ')'); });
  }
  tick();
  setInterval(tick, 1000);

  // Safe interactivity example: Click to toggle watch face outline color
  var faces = [].slice.call(document.querySelectorAll('#punk-svg-1150 .watch-face'));
  faces.forEach(function(face) {
      face.addEventListener('click', function() {
          var colors = ['#4a4ae0', '#4ae0a0', '#e04a4a', '#e0a04a', '#ffffff'];
          var randomColor = colors[Math.floor(Math.random() * colors.length)];
          face.setAttribute('stroke', randomColor);
      });
  });
}catch(e){/* Graceful degradation — CSS animations still render if JS is blocked */}
})();
]]>
</script>
</svg>