<?xml version="1.0" encoding="UTF-8" standalone="yes"?>
<svg xmlns="http://www.w3.org/2000/svg" viewBox="0 0 512 512" width="512" height="512" id="punk-svg-869">
<defs>
    <linearGradient id="metalGrad" x1="0%" y1="0%" x2="100%" y2="0%">
        <stop offset="0%" stop-color="#fff"/>
        <stop offset="50%" stop-color="#888"/>
        <stop offset="100%" stop-color="#fff"/>
    </linearGradient>
    <filter id="goo">
        <feGaussianBlur in="SourceGraphic" stdDeviation="5" result="blur" />
        <feColorMatrix in="blur" mode="matrix" values="1 0 0 0 0  0 1 0 0 0  0 0 1 0 0  0 0 0 18 -7" result="goo" />
        <feBlend in="SourceGraphic" in2="goo" />
    </filter>
</defs>

<defs>
<filter id="sw_869" x="-20%" y="-20%" width="140%" height="140%"><feDropShadow dx="0" dy="6" stdDeviation="12" flood-color="#000" flood-opacity="0.6"/></filter>
<linearGradient id="gl_869" x1="0%" y1="0%" x2="100%" y2="100%"><stop offset="0%" stop-color="rgba(255,255,255,0.4)"/><stop offset="30%" stop-color="rgba(255,255,255,0.02)"/><stop offset="100%" stop-color="rgba(255,255,255,0)"/></linearGradient>
<clipPath id="cp_869">
    <circle cx="256" cy="256" r="129.8529669106938"/>
</clipPath>
<pattern id="wf_869" x="0" y="0" width="18.841238082386553" height="18.63395017804578" patternUnits="userSpaceOnUse"><rect width="20" height="20" fill="none" stroke="black" stroke-opacity="0.2" stroke-width="1"/></pattern>
<pattern id="cf_869" x="0" y="0" width="10.012523967307061" height="12.027596407569945" patternUnits="userSpaceOnUse"><rect x="0" y="0" width="10" height="10" fill="black" fill-opacity="0.1"/><rect x="10" y="10" width="10" height="10" fill="black" fill-opacity="0.1"/></pattern>
<pattern id="hc_869" x="0" y="0" width="22.232171236537397" height="13.964610844384879" patternUnits="userSpaceOnUse"><path d="M 8.66,0 L 17.32,5 L 17.32,10 L 8.66,15 L 0,10 L 0,5 Z" fill="none" stroke="white" stroke-opacity="0.1" stroke-width="1"/></pattern>
<pattern id="dp_869" x="0" y="0" width="1" height="1" patternUnits="userSpaceOnUse">
    <circle cx="0.5" cy="0.5" r="0.2" fill="white" />
</pattern>
<filter id="tg_869" x="-50%" y="-50%" width="200%" height="200%">
    <feGaussianBlur stdDeviation="1.5" result="blur" />
    <feComposite in="SourceGraphic" in2="blur" operator="over" />
</filter>
<style>
.hr-hand, .mn-hand, .sc-hand { transform-origin: 0px 0px; transition: transform 0.2s cubic-bezier(0.4, 2.08, 0.55, 0.44); }
.watch-face:hover { filter: brightness(1.2); cursor: pointer; }
</style>
</defs>


<defs>
<filter id="sw_869_clothAlt" x="-20%" y="-20%" width="140%" height="140%"><feDropShadow dx="0" dy="6" stdDeviation="12" flood-color="#000" flood-opacity="0.6"/></filter>
<linearGradient id="gl_869_clothAlt" x1="0%" y1="0%" x2="100%" y2="100%"><stop offset="0%" stop-color="rgba(255,255,255,0.4)"/><stop offset="30%" stop-color="rgba(255,255,255,0.02)"/><stop offset="100%" stop-color="rgba(255,255,255,0)"/></linearGradient>
<clipPath id="cp_869_clothAlt">
    <circle cx="256" cy="256" r="129.8529669106938"/>
</clipPath>
<pattern id="wf_869_clothAlt" x="0" y="0" width="18.841238082386553" height="18.63395017804578" patternUnits="userSpaceOnUse"><rect width="20" height="20" fill="none" stroke="black" stroke-opacity="0.2" stroke-width="1"/></pattern>
<pattern id="cf_869_clothAlt" x="0" y="0" width="10.012523967307061" height="12.027596407569945" patternUnits="userSpaceOnUse"><rect x="0" y="0" width="10" height="10" fill="black" fill-opacity="0.1"/><rect x="10" y="10" width="10" height="10" fill="black" fill-opacity="0.1"/></pattern>
<pattern id="hc_869_clothAlt" x="0" y="0" width="22.232171236537397" height="13.964610844384879" patternUnits="userSpaceOnUse"><path d="M 8.66,0 L 17.32,5 L 17.32,10 L 8.66,15 L 0,10 L 0,5 Z" fill="none" stroke="white" stroke-opacity="0.1" stroke-width="1"/></pattern>
<pattern id="dp_869_clothAlt" x="0" y="0" width="1" height="1" patternUnits="userSpaceOnUse">
    <circle cx="0.5" cy="0.5" r="0.2" fill="white" />
</pattern>
<filter id="tg_869_clothAlt" x="-50%" y="-50%" width="200%" height="200%">
    <feGaussianBlur stdDeviation="1.5" result="blur" />
    <feComposite in="SourceGraphic" in2="blur" operator="over" />
</filter>
<style>
.hr-hand, .mn-hand, .sc-hand { transform-origin: 0px 0px; transition: transform 0.2s cubic-bezier(0.4, 2.08, 0.55, 0.44); }
.watch-face:hover { filter: brightness(1.2); cursor: pointer; }
</style>
</defs>


<defs>
<filter id="sw_869_watchAlt" x="-20%" y="-20%" width="140%" height="140%"><feDropShadow dx="0" dy="6" stdDeviation="12" flood-color="#000" flood-opacity="0.6"/></filter>
<linearGradient id="gl_869_watchAlt" x1="0%" y1="0%" x2="100%" y2="100%"><stop offset="0%" stop-color="rgba(255,255,255,0.4)"/><stop offset="30%" stop-color="rgba(255,255,255,0.02)"/><stop offset="100%" stop-color="rgba(255,255,255,0)"/></linearGradient>
<clipPath id="cp_869_watchAlt">
    <rect x="153.5319449044764" y="113.5319449044764" width="204.9361101910472" height="284.9361101910472"/>
</clipPath>
<pattern id="wf_869_watchAlt" x="0" y="0" width="18.44098111614585" height="13.343417674768716" patternUnits="userSpaceOnUse"><rect width="20" height="20" fill="none" stroke="black" stroke-opacity="0.2" stroke-width="1"/></pattern>
<pattern id="cf_869_watchAlt" x="0" y="0" width="15.280039219651371" height="15.254040183499455" patternUnits="userSpaceOnUse"><rect x="0" y="0" width="10" height="10" fill="black" fill-opacity="0.1"/><rect x="10" y="10" width="10" height="10" fill="black" fill-opacity="0.1"/></pattern>
<pattern id="hc_869_watchAlt" x="0" y="0" width="23.463544396217912" height="21.141966611146927" patternUnits="userSpaceOnUse"><path d="M 8.66,0 L 17.32,5 L 17.32,10 L 8.66,15 L 0,10 L 0,5 Z" fill="none" stroke="white" stroke-opacity="0.1" stroke-width="1"/></pattern>
<pattern id="dp_869_watchAlt" x="0" y="0" width="1" height="1" patternUnits="userSpaceOnUse">
    <circle cx="0.5" cy="0.5" r="0.2" fill="white" />
</pattern>
<filter id="tg_869_watchAlt" x="-50%" y="-50%" width="200%" height="200%">
    <feGaussianBlur stdDeviation="1.5" result="blur" />
    <feComposite in="SourceGraphic" in2="blur" operator="over" />
</filter>
<style>
.hr-hand, .mn-hand, .sc-hand { transform-origin: 0px 0px; transition: transform 0.2s cubic-bezier(0.4, 2.08, 0.55, 0.44); }
.watch-face:hover { filter: brightness(1.2); cursor: pointer; }
</style>
</defs>

<style>
@keyframes blink{0%,88%,92%,96%,100%{transform:scaleY(1)}90%,94%{transform:scaleY(0.05)}}.ey{animation:blink 8s infinite;transform-box:fill-box;transform-origin:center;animation-timing-function:cubic-bezier(0.4, 0, 0.2, 1)}@keyframes gl{0%,87%,100%{opacity:0}90%{opacity:.4}93%{opacity:0}}.glr{animation:gl 10s infinite}
    @keyframes tm-neon {
        0% { filter: drop-shadow(0 0 1px #fff) drop-shadow(0 0 3px #ff0000) drop-shadow(0 0 6px #ff0000); fill: #ffcccc; }
        20% { filter: drop-shadow(0 0 1px #fff) drop-shadow(0 0 3px #ffff00) drop-shadow(0 0 6px #ffff00); fill: #ffffcc; }
        40% { filter: drop-shadow(0 0 1px #fff) drop-shadow(0 0 3px #00ff00) drop-shadow(0 0 6px #00ff00); fill: #ccffcc; }
        60% { filter: drop-shadow(0 0 1px #fff) drop-shadow(0 0 3px #00ffff) drop-shadow(0 0 6px #00ffff); fill: #ccffff; }
        80% { filter: drop-shadow(0 0 1px #fff) drop-shadow(0 0 3px #0000ff) drop-shadow(0 0 6px #0000ff); fill: #ccccff; }
        100% { filter: drop-shadow(0 0 1px #fff) drop-shadow(0 0 3px #ff0000) drop-shadow(0 0 6px #ff0000); fill: #ffcccc; }
    }
    .tm-text {
        font-family: 'Courier New', monospace;
        font-size: 4.5px;
        font-weight: bold;
        animation: tm-neon 8s linear infinite;
        text-anchor: start;
    }
    /* --- NEW MASK ANIMATIONS --- */
    @keyframes mk-pulse { 0%, 100% { opacity: 0.3; transform: scale(0.95); } 50% { opacity: 1; transform: scale(1.05); } }
    @keyframes mk-rainbow { 0% { stop-color: #ff0000; fill: #ff0000; stroke: #ff0000; } 20% { stop-color: #ffff00; fill: #ffff00; stroke: #ffff00; } 40% { stop-color: #00ff00; fill: #00ff00; stroke: #00ff00; } 60% { stop-color: #00ffff; fill: #00ffff; stroke: #00ffff; } 80% { stop-color: #0000ff; fill: #0000ff; stroke: #0000ff; } 100% { stop-color: #ff0000; fill: #ff0000; stroke: #ff0000; } }
    @keyframes mk-scan { 0% { transform: translateY(-30px); opacity: 0; } 50% { opacity: 1; } 100% { transform: translateY(30px); opacity: 0; } }
    @keyframes mk-glitch { 0%, 100% { transform: translate(0); } 10%, 90% { transform: translate(-2px, 1px); } 20%, 80% { transform: translate(2px, -1px); } }
    @keyframes mk-rotate { from { transform: rotate(0deg); } to { transform: rotate(360deg); } }
    @keyframes mk-float { 0%, 100% { transform: translateY(0); } 50% { transform: translateY(-10px); } }
    .m-pulse { animation: mk-pulse 2s ease-in-out infinite; transform-box: fill-box; transform-origin: center; }
    .m-rainbow { animation: mk-rainbow 5s linear infinite; }
    .m-scan { animation: mk-scan 2s linear infinite; }
    .m-glitch { animation: mk-glitch 0.2s steps(2) infinite; }
    .m-rotate { animation: mk-rotate 4s linear infinite; transform-box: fill-box; transform-origin: center; }
    .m-float { animation: mk-float 3s ease-in-out infinite; }
    .m-fast-rotate { animation: mk-rotate 1s linear infinite; transform-box: fill-box; transform-origin: center; }
    @keyframes bgP{0%,100%{opacity:0.3}50%{opacity:0.7}}.bgP{animation:bgP 6s infinite}@keyframes nwFloat{0%,100%{transform:translateY(0)}50%{transform:translateY(8px)}}.nwFloat{animation:nwFloat 4s ease-in-out infinite;transform-origin:center;transform-box:fill-box;}
        @keyframes prt-fade { 0%, 100% { opacity: 0; } 50% { opacity: 0.6; } }
        @keyframes prt-float { 0% { transform: translateY(0) translateX(0); } 50% { transform: translateY(-20px) translateX(10px); } 100% { transform: translateY(0) translateX(0); } }
        .prt { animation: prt-fade 4s infinite ease-in-out, prt-float 6s infinite ease-in-out; }
        
@keyframes blink{0%,88%,92%,96%,100%{transform:scaleY(1)}90%,94%{transform:scaleY(0.05)}}.ey{animation:blink 8s infinite;transform-box:fill-box;transform-origin:center;animation-timing-function:cubic-bezier(0.4, 0, 0.2, 1)}@keyframes gl{0%,87%,100%{opacity:0}90%{opacity:.4}93%{opacity:0}}.glr{animation:gl 10s infinite}
    @keyframes tm-neon {
        0% { filter: drop-shadow(0 0 1px #fff) drop-shadow(0 0 3px #ff0000) drop-shadow(0 0 6px #ff0000); fill: #ffcccc; }
        20% { filter: drop-shadow(0 0 1px #fff) drop-shadow(0 0 3px #ffff00) drop-shadow(0 0 6px #ffff00); fill: #ffffcc; }
        40% { filter: drop-shadow(0 0 1px #fff) drop-shadow(0 0 3px #00ff00) drop-shadow(0 0 6px #00ff00); fill: #ccffcc; }
        60% { filter: drop-shadow(0 0 1px #fff) drop-shadow(0 0 3px #00ffff) drop-shadow(0 0 6px #00ffff); fill: #ccffff; }
        80% { filter: drop-shadow(0 0 1px #fff) drop-shadow(0 0 3px #0000ff) drop-shadow(0 0 6px #0000ff); fill: #ccccff; }
        100% { filter: drop-shadow(0 0 1px #fff) drop-shadow(0 0 3px #ff0000) drop-shadow(0 0 6px #ff0000); fill: #ffcccc; }
    }
    .tm-text {
        font-family: 'Courier New', monospace;
        font-size: 4.5px;
        font-weight: bold;
        animation: tm-neon 8s linear infinite;
        text-anchor: start;
    }
    /* --- NEW MASK ANIMATIONS --- */
    @keyframes mk-pulse { 0%, 100% { opacity: 0.3; transform: scale(0.95); } 50% { opacity: 1; transform: scale(1.05); } }
    @keyframes mk-rainbow { 0% { stop-color: #ff0000; fill: #ff0000; stroke: #ff0000; } 20% { stop-color: #ffff00; fill: #ffff00; stroke: #ffff00; } 40% { stop-color: #00ff00; fill: #00ff00; stroke: #00ff00; } 60% { stop-color: #00ffff; fill: #00ffff; stroke: #00ffff; } 80% { stop-color: #0000ff; fill: #0000ff; stroke: #0000ff; } 100% { stop-color: #ff0000; fill: #ff0000; stroke: #ff0000; } }
    @keyframes mk-scan { 0% { transform: translateY(-30px); opacity: 0; } 50% { opacity: 1; } 100% { transform: translateY(30px); opacity: 0; } }
    @keyframes mk-glitch { 0%, 100% { transform: translate(0); } 10%, 90% { transform: translate(-2px, 1px); } 20%, 80% { transform: translate(2px, -1px); } }
    @keyframes mk-rotate { from { transform: rotate(0deg); } to { transform: rotate(360deg); } }
    @keyframes mk-float { 0%, 100% { transform: translateY(0); } 50% { transform: translateY(-10px); } }
    .m-pulse { animation: mk-pulse 2s ease-in-out infinite; transform-box: fill-box; transform-origin: center; }
    .m-rainbow { animation: mk-rainbow 5s linear infinite; }
    .m-scan { animation: mk-scan 2s linear infinite; }
    .m-glitch { animation: mk-glitch 0.2s steps(2) infinite; }
    .m-rotate { animation: mk-rotate 4s linear infinite; transform-box: fill-box; transform-origin: center; }
    .m-float { animation: mk-float 3s ease-in-out infinite; }
    .m-fast-rotate { animation: mk-rotate 1s linear infinite; transform-box: fill-box; transform-origin: center; }
    @keyframes bgM{0%{transform:translateY(-50px)}100%{transform:translateY(50px)}}.bgM{animation:bgM 4s linear infinite}@keyframes nwFloat{0%,100%{transform:translateY(0)}50%{transform:translateY(8px)}}.nwFloat{animation:nwFloat 4s ease-in-out infinite;transform-origin:center;transform-box:fill-box;}
        @keyframes prt-fade { 0%, 100% { opacity: 0; } 50% { opacity: 0.6; } }
        @keyframes prt-float { 0% { transform: translateY(0) translateX(0); } 50% { transform: translateY(-20px) translateX(10px); } 100% { transform: translateY(0) translateX(0); } }
        .prt { animation: prt-fade 4s infinite ease-in-out, prt-float 6s infinite ease-in-out; }
        
@keyframes blink{0%,88%,92%,96%,100%{transform:scaleY(1)}90%,94%{transform:scaleY(0.05)}}.ey{animation:blink 8s infinite;transform-box:fill-box;transform-origin:center;animation-timing-function:cubic-bezier(0.4, 0, 0.2, 1)}@keyframes gl{0%,87%,100%{opacity:0}90%{opacity:.4}93%{opacity:0}}.glr{animation:gl 10s infinite}
    @keyframes tm-neon {
        0% { filter: drop-shadow(0 0 1px #fff) drop-shadow(0 0 3px #ff0000) drop-shadow(0 0 6px #ff0000); fill: #ffcccc; }
        20% { filter: drop-shadow(0 0 1px #fff) drop-shadow(0 0 3px #ffff00) drop-shadow(0 0 6px #ffff00); fill: #ffffcc; }
        40% { filter: drop-shadow(0 0 1px #fff) drop-shadow(0 0 3px #00ff00) drop-shadow(0 0 6px #00ff00); fill: #ccffcc; }
        60% { filter: drop-shadow(0 0 1px #fff) drop-shadow(0 0 3px #00ffff) drop-shadow(0 0 6px #00ffff); fill: #ccffff; }
        80% { filter: drop-shadow(0 0 1px #fff) drop-shadow(0 0 3px #0000ff) drop-shadow(0 0 6px #0000ff); fill: #ccccff; }
        100% { filter: drop-shadow(0 0 1px #fff) drop-shadow(0 0 3px #ff0000) drop-shadow(0 0 6px #ff0000); fill: #ffcccc; }
    }
    .tm-text {
        font-family: 'Courier New', monospace;
        font-size: 4.5px;
        font-weight: bold;
        animation: tm-neon 8s linear infinite;
        text-anchor: start;
    }
    /* --- NEW MASK ANIMATIONS --- */
    @keyframes mk-pulse { 0%, 100% { opacity: 0.3; transform: scale(0.95); } 50% { opacity: 1; transform: scale(1.05); } }
    @keyframes mk-rainbow { 0% { stop-color: #ff0000; fill: #ff0000; stroke: #ff0000; } 20% { stop-color: #ffff00; fill: #ffff00; stroke: #ffff00; } 40% { stop-color: #00ff00; fill: #00ff00; stroke: #00ff00; } 60% { stop-color: #00ffff; fill: #00ffff; stroke: #00ffff; } 80% { stop-color: #0000ff; fill: #0000ff; stroke: #0000ff; } 100% { stop-color: #ff0000; fill: #ff0000; stroke: #ff0000; } }
    @keyframes mk-scan { 0% { transform: translateY(-30px); opacity: 0; } 50% { opacity: 1; } 100% { transform: translateY(30px); opacity: 0; } }
    @keyframes mk-glitch { 0%, 100% { transform: translate(0); } 10%, 90% { transform: translate(-2px, 1px); } 20%, 80% { transform: translate(2px, -1px); } }
    @keyframes mk-rotate { from { transform: rotate(0deg); } to { transform: rotate(360deg); } }
    @keyframes mk-float { 0%, 100% { transform: translateY(0); } 50% { transform: translateY(-10px); } }
    .m-pulse { animation: mk-pulse 2s ease-in-out infinite; transform-box: fill-box; transform-origin: center; }
    .m-rainbow { animation: mk-rainbow 5s linear infinite; }
    .m-scan { animation: mk-scan 2s linear infinite; }
    .m-glitch { animation: mk-glitch 0.2s steps(2) infinite; }
    .m-rotate { animation: mk-rotate 4s linear infinite; transform-box: fill-box; transform-origin: center; }
    .m-float { animation: mk-float 3s ease-in-out infinite; }
    .m-fast-rotate { animation: mk-rotate 1s linear infinite; transform-box: fill-box; transform-origin: center; }
    @keyframes bgP{0%,100%{opacity:0.3}50%{opacity:0.7}}.bgP{animation:bgP 6s infinite}@keyframes nwFloat{0%,100%{transform:translateY(0)}50%{transform:translateY(8px)}}.nwFloat{animation:nwFloat 4s ease-in-out infinite;transform-origin:center;transform-box:fill-box;}
        @keyframes prt-fade { 0%, 100% { opacity: 0; } 50% { opacity: 0.6; } }
        @keyframes prt-float { 0% { transform: translateY(0) translateX(0); } 50% { transform: translateY(-20px) translateX(10px); } 100% { transform: translateY(0) translateX(0); } }
        .prt { animation: prt-fade 4s infinite ease-in-out, prt-float 6s infinite ease-in-out; }
        
@keyframes blink{0%,88%,92%,96%,100%{transform:scaleY(1)}90%,94%{transform:scaleY(0.05)}}.ey{animation:blink 8s infinite;transform-box:fill-box;transform-origin:center;animation-timing-function:cubic-bezier(0.4, 0, 0.2, 1)}@keyframes gl{0%,87%,100%{opacity:0}90%{opacity:.4}93%{opacity:0}}.glr{animation:gl 10s infinite}
    @keyframes tm-neon {
        0% { filter: drop-shadow(0 0 1px #fff) drop-shadow(0 0 3px #ff0000) drop-shadow(0 0 6px #ff0000); fill: #ffcccc; }
        20% { filter: drop-shadow(0 0 1px #fff) drop-shadow(0 0 3px #ffff00) drop-shadow(0 0 6px #ffff00); fill: #ffffcc; }
        40% { filter: drop-shadow(0 0 1px #fff) drop-shadow(0 0 3px #00ff00) drop-shadow(0 0 6px #00ff00); fill: #ccffcc; }
        60% { filter: drop-shadow(0 0 1px #fff) drop-shadow(0 0 3px #00ffff) drop-shadow(0 0 6px #00ffff); fill: #ccffff; }
        80% { filter: drop-shadow(0 0 1px #fff) drop-shadow(0 0 3px #0000ff) drop-shadow(0 0 6px #0000ff); fill: #ccccff; }
        100% { filter: drop-shadow(0 0 1px #fff) drop-shadow(0 0 3px #ff0000) drop-shadow(0 0 6px #ff0000); fill: #ffcccc; }
    }
    .tm-text {
        font-family: 'Courier New', monospace;
        font-size: 4.5px;
        font-weight: bold;
        animation: tm-neon 8s linear infinite;
        text-anchor: start;
    }
    /* --- NEW MASK ANIMATIONS --- */
    @keyframes mk-pulse { 0%, 100% { opacity: 0.3; transform: scale(0.95); } 50% { opacity: 1; transform: scale(1.05); } }
    @keyframes mk-rainbow { 0% { stop-color: #ff0000; fill: #ff0000; stroke: #ff0000; } 20% { stop-color: #ffff00; fill: #ffff00; stroke: #ffff00; } 40% { stop-color: #00ff00; fill: #00ff00; stroke: #00ff00; } 60% { stop-color: #00ffff; fill: #00ffff; stroke: #00ffff; } 80% { stop-color: #0000ff; fill: #0000ff; stroke: #0000ff; } 100% { stop-color: #ff0000; fill: #ff0000; stroke: #ff0000; } }
    @keyframes mk-scan { 0% { transform: translateY(-30px); opacity: 0; } 50% { opacity: 1; } 100% { transform: translateY(30px); opacity: 0; } }
    @keyframes mk-glitch { 0%, 100% { transform: translate(0); } 10%, 90% { transform: translate(-2px, 1px); } 20%, 80% { transform: translate(2px, -1px); } }
    @keyframes mk-rotate { from { transform: rotate(0deg); } to { transform: rotate(360deg); } }
    @keyframes mk-float { 0%, 100% { transform: translateY(0); } 50% { transform: translateY(-10px); } }
    .m-pulse { animation: mk-pulse 2s ease-in-out infinite; transform-box: fill-box; transform-origin: center; }
    .m-rainbow { animation: mk-rainbow 5s linear infinite; }
    .m-scan { animation: mk-scan 2s linear infinite; }
    .m-glitch { animation: mk-glitch 0.2s steps(2) infinite; }
    .m-rotate { animation: mk-rotate 4s linear infinite; transform-box: fill-box; transform-origin: center; }
    .m-float { animation: mk-float 3s ease-in-out infinite; }
    .m-fast-rotate { animation: mk-rotate 1s linear infinite; transform-box: fill-box; transform-origin: center; }
    @keyframes bgP{0%,100%{opacity:0.3}50%{opacity:0.7}}.bgP{animation:bgP 6s infinite}@keyframes nwFloat{0%,100%{transform:translateY(0)}50%{transform:translateY(8px)}}.nwFloat{animation:nwFloat 4s ease-in-out infinite;transform-origin:center;transform-box:fill-box;}
        @keyframes prt-fade { 0%, 100% { opacity: 0; } 50% { opacity: 0.6; } }
        @keyframes prt-float { 0% { transform: translateY(0) translateX(0); } 50% { transform: translateY(-20px) translateX(10px); } 100% { transform: translateY(0) translateX(0); } }
        .prt { animation: prt-fade 4s infinite ease-in-out, prt-float 6s infinite ease-in-out; }
        
</style>

<!-- BACKGROUNDS -->
<g id="bg0_869"><rect width="512" height="512" fill="#431407"/><rect x="63.46645964682102" y="63.46645964682102" width="385.06708070635796" height="385.06708070635796" fill="#f97316" class="bgP" rx="10.403350600972772"/></g>
<g id="bg1_869" style="display:none"><rect width="512" height="512" fill="#451a03"/><text x="0" y="0" fill="#f59e0b" font-family="monospace" font-size="18.706443037372082" opacity="0.5554732794873416" class="bgM" style="animation-duration:5.192711669020355s">010101</text><text x="22.177099380642176" y="0" fill="#f59e0b" font-family="monospace" font-size="13.34207323146984" opacity="0.3116283478215337" class="bgM" style="animation-duration:5.730584177188575s">010101</text><text x="55.88678442873061" y="0" fill="#f59e0b" font-family="monospace" font-size="10.092601077631116" opacity="0.32814889224246147" class="bgM" style="animation-duration:4.12302200961858s">101010</text><text x="93.12306514941156" y="0" fill="#f59e0b" font-family="monospace" font-size="18.23308925377205" opacity="0.2750881234183908" class="bgM" style="animation-duration:4.411935067735612s">010101</text><text x="114.09329526126385" y="0" fill="#f59e0b" font-family="monospace" font-size="11.56566474121064" opacity="0.3111036789603532" class="bgM" style="animation-duration:5.310584311373532s">010101</text><text x="141.01741628255695" y="0" fill="#f59e0b" font-family="monospace" font-size="16.609470900148153" opacity="0.2647957190871239" class="bgM" style="animation-duration:2.4372931364923716s">101010</text><text x="171.27239851746708" y="0" fill="#f59e0b" font-family="monospace" font-size="11.965545096900314" opacity="0.4833346791565418" class="bgM" style="animation-duration:5.859902559779584s">010101</text><text x="203.78557533491403" y="0" fill="#f59e0b" font-family="monospace" font-size="18.74826871789992" opacity="0.3887031842954457" class="bgM" style="animation-duration:5.291425033472478s">010101</text><text x="224.63697492610663" y="0" fill="#f59e0b" font-family="monospace" font-size="10.343627377878875" opacity="0.36755959354341033" class="bgM" style="animation-duration:3.8980494365096092s">101010</text><text x="258.19419036153704" y="0" fill="#f59e0b" font-family="monospace" font-size="13.071322767063975" opacity="0.21839004317298533" class="bgM" style="animation-duration:4.687807587906718s">101010</text><text x="294.77010822389275" y="0" fill="#f59e0b" font-family="monospace" font-size="15.619469131343067" opacity="0.5562116377986968" class="bgM" style="animation-duration:4.267944206483662s">101010</text><text x="331.2268716003746" y="0" fill="#f59e0b" font-family="monospace" font-size="12.592305573634803" opacity="0.25124395340681077" class="bgM" style="animation-duration:4.8383267084136605s">101010</text><text x="354.8898989800364" y="0" fill="#f59e0b" font-family="monospace" font-size="17.14011459844187" opacity="0.232483743224293" class="bgM" style="animation-duration:3.6423445204272866s">010101</text><text x="385.47638369258493" y="0" fill="#f59e0b" font-family="monospace" font-size="10.673040926922113" opacity="0.21572334906086327" class="bgM" style="animation-duration:3.385617229156196s">010101</text><text x="423.7825064873323" y="0" fill="#f59e0b" font-family="monospace" font-size="13.333234344609082" opacity="0.5793676698580384" class="bgM" style="animation-duration:4.009144554845989s">010101</text><text x="454.6201064065099" y="0" fill="#f59e0b" font-family="monospace" font-size="14.714522832073271" opacity="0.3928422690369189" class="bgM" style="animation-duration:5.700725495815277s">101010</text><text x="484.9745478667319" y="0" fill="#f59e0b" font-family="monospace" font-size="12.628707461990416" opacity="0.5427205709740519" class="bgM" style="animation-duration:3.8748210351914167s">101010</text></g>

<!-- COMMON STATIC BOTTOM LAYERS -->
<rect x="269" y="251" width="1.5" height="1.5" fill="#fda4af" class="prt" style="animation-duration: 7s, 6s; animation-delay: -2.9s, -2.9s; filter: blur(0.5px);"/><circle cx="256" cy="500" r="0.75" fill="#fda4af" class="prt" style="animation-duration: 3s, 7s; animation-delay: -3s, -3s; filter: blur(0.5px);"/><rect x="243" y="237" width="1.5" height="1.5" fill="#fda4af" class="prt" style="animation-duration: 4s, 8s; animation-delay: -3.1s, -3.1s; filter: blur(0.5px);"/><circle cx="230" cy="486" r="0.75" fill="#fda4af" class="prt" style="animation-duration: 5s, 9s; animation-delay: -3.2s, -3.2s; filter: blur(0.5px);"/><rect x="217" y="223" width="1.5" height="1.5" fill="#fda4af" class="prt" style="animation-duration: 6s, 10s; animation-delay: -3.3s, -3.3s; filter: blur(0.5px);"/><circle cx="204" cy="472" r="0.75" fill="#fda4af" class="prt" style="animation-duration: 7s, 11s; animation-delay: -3.4s, -3.4s; filter: blur(0.5px);"/><rect x="191" y="209" width="1.5" height="1.5" fill="#fda4af" class="prt" style="animation-duration: 3s, 5s; animation-delay: -3.5s, -3.5s; filter: blur(0.5px);"/><circle cx="178" cy="458" r="0.75" fill="#fda4af" class="prt" style="animation-duration: 4s, 6s; animation-delay: -3.6s, -3.6s; filter: blur(0.5px);"/><rect x="165" y="195" width="1.5" height="1.5" fill="#fda4af" class="prt" style="animation-duration: 5s, 7s; animation-delay: -3.7s, -3.7s; filter: blur(0.5px);"/><circle cx="152" cy="444" r="0.75" fill="#fda4af" class="prt" style="animation-duration: 6s, 8s; animation-delay: -3.8s, -3.8s; filter: blur(0.5px);"/><rect x="139" y="181" width="1.5" height="1.5" fill="#fda4af" class="prt" style="animation-duration: 7s, 9s; animation-delay: -3.9s, -3.9s; filter: blur(0.5px);"/><circle cx="126" cy="430" r="0.75" fill="#fda4af" class="prt" style="animation-duration: 3s, 10s; animation-delay: 0s, 0s; filter: blur(0.5px);"/>

<g style="filter:drop-shadow(0px 18px 30px rgba(0,0,0,0.65))">
  <path d="M200,512 L200,300 Q200,120 310,120 Q350,120 370,160 L410,240 L380,260 L390,280 L380,330 Q340,360 280,380 L280,512 Z" fill="#cbd5e1"/>
  <path d="M200,512 L200,300 Q200,120 310,120 Q350,120 370,160 L410,240 L380,260 L390,280 L380,330 Q340,360 280,380 L280,512 Z" fill="#f8fafc" opacity="0.2"/>
  <path d="M200,512 L200,300 Q200,120 310,120 Q350,120 370,160 L410,240 L380,260 L390,280 L380,330 Q340,360 280,380 L280,512 Z" fill="#475569" opacity="0.15"/>
  <path d="M200,512 L200,300 Q200,120 310,120 Q350,120 370,160 L410,240 L380,260 L390,280 L380,330 Q340,360 280,380 L280,512 Z" fill="none" stroke="#f8fafc" stroke-width="7" stroke-linejoin="round" opacity="0.4"/>
</g>

  <path d="M210,512 Q200,130 320,105" fill="none" stroke="white" stroke-opacity="0.1" stroke-width="8" stroke-linecap="round"/>


<g style="filter:drop-shadow(0 6px 14px rgba(0,0,0,0.55))"><path d="M240,160 L235,60 L265,130 L280,30 L310,130 L340,20 L365,130 L390,60 L390,160 Z" fill="#fda4af" stroke="#e11d48" stroke-width="3"/></g>
<ellipse cx="260" cy="260" rx="15" ry="25" fill="#cbd5e1" stroke="#475569" stroke-width="1"/>
<ellipse cx="260" cy="260" rx="5" ry="12" fill="#475569"/><circle cx="260" cy="285" r="15" fill="none" stroke="#fbbf24" stroke-width="4"/>
<circle cx="260" cy="285" r="13" fill="none" stroke="#fef08a" stroke-width="2"/>

<g class="ey"><ellipse cx="330" cy="220" rx="26" ry="8" fill="white"/>
<g class="">
  <circle cx="338" cy="220" r="12" fill="#84cc16"/>
  <circle cx="338" cy="220" r="8" fill="#4d7c0f"/>
  <circle cx="338" cy="220" r="5" fill="#020617"/>
  <circle cx="334" cy="216" r="3" fill="white"/>
</g></g>


<!-- CLOTHING -->
<g id="cloth0_869"><path d="M120,430 L150,460 L362,460 L392,430 Z" fill="#451a03"/><rect x="80" y="460" width="352" height="52" fill="#451a03"/><circle cx="240" cy="485" r="3" fill="#ca8a04"/><circle cx="240" cy="500" r="3" fill="#ca8a04"/></g>
<g id="cloth1_869" style="display:none"><path d="M100,440 L350,512 L0,512 Z" fill="#fbbf24"/><path d="M412,440 L160,512 L512,512 Z" fill="#fbbf24"/><rect x="150" y="495" width="212" height="12" fill="#000"/></g>

<!-- COMMON STATIC MIDDLE LAYERS -->
<g class="nwFloat" style="filter:drop-shadow(0 3px 8px rgba(0,0,0,0.8))"><path d="M180,415 L350,425 L340,475 L170,465 Z" fill="#fda4af"/></g>
<g><circle cx="385" cy="305" r="35" fill="rgba(139,92,246,0.3)"/><path d="M365,290 L405,320" stroke="white" class="m-glitch"/></g>

<!-- WATCH + HAND -->
<g id="watch0_869"><path d="m 152.79876,334.84159 c 1.892,-1.673 81.84,-50.62 122.326,-74.892 11.96,-7.17 12.65,-7.443 20.5,-8.094 l 8.124,-0.674 0.5,-6.5 c 0.275,-3.575 0.898,-7.117 1.384,-7.87 1.475,-2.29 90.703,-45.13 93.994,-45.13 3.09,0 5.442,1.902 6.11,4.942 1.564,7.126 -8.713,20.053 -21.988,27.653 -7.295,4.177 -28.465,13.583 -39.25,17.439 -6.242,2.231 -8.077,3.966 -4.195,3.966 1.13,0 9.792,-2.208 19.25,-4.906 26.167,-7.466 64.781,-18.245 68.568,-19.14 3.952,-0.936 7.815,0.488 8.675,3.196 1.69,5.324 -0.422,11.792 -4.358,13.352 -20.924,8.291 -68.238,25.178 -76.94,27.46 -6.176,1.62 -5.498,3.457 1,2.708 15.767,-1.817 21.274,-1.901 24.91,-0.379 3.314,1.387 3.77,2.057 4.808,7.056 1.367,6.585 0.573,11.853 -2.16,14.326 -1.69,1.53 -4.216,1.853 -16.65,2.123 -16.94,0.37 -18.2,0.59 -15.984,2.807 1.151,1.15 4.836,1.677 14.884,2.123 12.168,0.542 13.557,0.798 15.648,2.889 1.262,1.262 2.294,3.454 2.294,4.872 0,3.25 -2.21,8.615 -4.245,10.302 -0.854,0.709 -9.587,3.341 -19.404,5.85 -17.328,4.426 -18.334,4.565 -34.351,4.749 -9.075,0.103 -17.287,0.006 -18.25,-0.217 -1.316,-0.304 -1.753,-1.429 -1.764,-4.538 -0.026,-7.953 -0.552,-8.633 -6.685,-8.633 -5.413,0 -5.606,0.106 -19.75,10.893 -7.856,5.991 -15.214,11.391 -16.351,12 -2.484,1.33 -112.15,1.594 -110.65,0.267" transform="translate(75.43, 177.5) scale(0.985, 1)" fill="#cbd5e1" stroke="#475569" stroke-width="1"/>
<g transform="translate(350, 467) scale(0.2625, 0.2625) translate(-256, -256)">
    <path d="M 194.63790926989168 107.82908643502742 L 194.63790926989168 74.76932845916599 L 317.3620907301083 74.76932845916599 L 317.3620907301083 107.82908643502742 Z M 194.63790926989168 404.1709135649726 L 194.63790926989168 437.230671540834 L 317.3620907301083 437.230671540834 L 317.3620907301083 404.1709135649726 Z M 420.7069507697597 256 A 164.70695076975971 164.70695076975971 0 1 0 91.29304923024029 256 A 164.70695076975971 164.70695076975971 0 1 0 420.7069507697597 256 Z" fill="#fbbf24" stroke="#d97706" stroke-width="2" />
    <rect x="396" y="241" width="60" height="30" fill="#fbbf24" stroke="#d97706" stroke-width="1" />
    <circle cx="256" cy="256" r="167.8134617418982" fill="#fbbf24" stroke="#d97706" stroke-width="2" /><circle cx="402.333214326296" cy="256" r="14.50599291245453" fill="none" stroke="#d97706" stroke-width="2" /><circle cx="393.50824167830314" cy="306.04890693718556" r="14.50599291245453" fill="none" stroke="#d97706" stroke-width="2" /><circle cx="368.0977456783975" cy="350.06117705454784" r="14.50599291245453" fill="none" stroke="#d97706" stroke-width="2" /><circle cx="329.166607163148" cy="382.7282810240053" r="14.50599291245453" fill="none" stroke="#d97706" stroke-width="2" /><circle cx="281.41049599990566" cy="400.1100839917334" r="14.50599291245453" fill="none" stroke="#d97706" stroke-width="2" /><circle cx="230.58950400009437" cy="400.1100839917334" r="14.50599291245453" fill="none" stroke="#d97706" stroke-width="2" /><circle cx="182.83339283685203" cy="382.7282810240053" r="14.50599291245453" fill="none" stroke="#d97706" stroke-width="2" /><circle cx="143.90225432160253" cy="350.0611770545479" r="14.50599291245453" fill="none" stroke="#d97706" stroke-width="2" /><circle cx="118.49175832169689" cy="306.04890693718556" r="14.50599291245453" fill="none" stroke="#d97706" stroke-width="2" /><circle cx="109.666785673704" cy="256" r="14.50599291245453" fill="none" stroke="#d97706" stroke-width="2" /><circle cx="118.49175832169686" cy="205.95109306281444" r="14.50599291245453" fill="none" stroke="#d97706" stroke-width="2" /><circle cx="143.90225432160247" cy="161.93882294545222" r="14.50599291245453" fill="none" stroke="#d97706" stroke-width="2" /><circle cx="182.83339283685194" cy="129.27171897599476" r="14.50599291245453" fill="none" stroke="#d97706" stroke-width="2" /><circle cx="230.58950400009437" cy="111.8899160082666" r="14.50599291245453" fill="none" stroke="#d97706" stroke-width="2" /><circle cx="281.4104959999056" cy="111.88991600826657" r="14.50599291245453" fill="none" stroke="#d97706" stroke-width="2" /><circle cx="329.1666071631479" cy="129.27171897599465" r="14.50599291245453" fill="none" stroke="#d97706" stroke-width="2" /><circle cx="368.0977456783975" cy="161.9388229454521" r="14.50599291245453" fill="none" stroke="#d97706" stroke-width="2" /><circle cx="393.50824167830314" cy="205.95109306281446" r="14.50599291245453" fill="none" stroke="#d97706" stroke-width="2" />
    <g transform="translate(256,256)">
        <circle class="watch-face" r="129.8529669106938" fill="#1e3a8a" stroke="#d97706" stroke-width="4" />
    </g>
    <g clip-path="url(#cp_869)">
        <circle cx="216" cy="236" r="32.33074919320643" fill="black" fill-opacity="0.2" stroke="#d97706" stroke-width="2" /><line x1="243.33074919320643" y1="236" x2="253.33074919320643" y2="236" stroke="#d97706" stroke-width="2" /><line x1="239.66912310577783" y1="249.66537459660321" x2="248.3293771436222" y2="254.66537459660321" stroke="#d97706" stroke-width="2" /><line x1="229.66537459660321" y1="259.6691231057778" x2="234.66537459660321" y2="268.3293771436222" stroke="#d97706" stroke-width="2" /><line x1="216" y1="263.33074919320643" x2="216" y2="273.33074919320643" stroke="#d97706" stroke-width="2" /><line x1="202.33462540339679" y1="259.6691231057778" x2="197.33462540339679" y2="268.3293771436222" stroke="#d97706" stroke-width="2" /><line x1="192.33087689422217" y1="249.66537459660321" x2="183.6706228563778" y2="254.66537459660321" stroke="#d97706" stroke-width="2" /><line x1="188.66925080679357" y1="236" x2="178.66925080679357" y2="236" stroke="#d97706" stroke-width="2" /><line x1="192.33087689422217" y1="222.33462540339679" x2="183.6706228563778" y2="217.33462540339679" stroke="#d97706" stroke-width="2" /><line x1="202.33462540339679" y1="212.3308768942222" x2="197.33462540339676" y2="203.6706228563778" stroke="#d97706" stroke-width="2" /><line x1="216" y1="208.66925080679357" x2="216" y2="198.66925080679357" stroke="#d97706" stroke-width="2" /><line x1="229.66537459660321" y1="212.33087689422217" x2="234.66537459660321" y2="203.6706228563778" stroke="#d97706" stroke-width="2" /><line x1="239.6691231057778" y1="222.33462540339679" x2="248.3293771436222" y2="217.33462540339676" stroke="#d97706" stroke-width="2" /><circle cx="286" cy="286" r="65.5935087800026" fill="black" fill-opacity="0.2" stroke="#d97706" stroke-width="2" /><line x1="346.5935087800026" y1="286" x2="356.5935087800026" y2="286" stroke="#d97706" stroke-width="2" /><line x1="338.47551790791766" y1="316.2967543900013" x2="347.1357719457621" y2="321.2967543900013" stroke="#d97706" stroke-width="2" /><line x1="316.2967543900013" y1="338.47551790791766" x2="321.2967543900013" y2="347.13577194576203" stroke="#d97706" stroke-width="2" /><line x1="286" y1="346.5935087800026" x2="286" y2="356.5935087800026" stroke="#d97706" stroke-width="2" /><line x1="255.7032456099987" y1="338.47551790791766" x2="250.7032456099987" y2="347.1357719457621" stroke="#d97706" stroke-width="2" /><line x1="233.52448209208234" y1="316.2967543900013" x2="224.86422805423794" y2="321.2967543900013" stroke="#d97706" stroke-width="2" /><line x1="225.4064912199974" y1="286" x2="215.4064912199974" y2="286" stroke="#d97706" stroke-width="2" /><line x1="233.52448209208234" y1="255.7032456099987" x2="224.86422805423794" y2="250.7032456099987" stroke="#d97706" stroke-width="2" /><line x1="255.70324560999867" y1="233.52448209208234" x2="250.70324560999867" y2="224.86422805423797" stroke="#d97706" stroke-width="2" /><line x1="286" y1="225.4064912199974" x2="286" y2="215.4064912199974" stroke="#d97706" stroke-width="2" /><line x1="316.2967543900013" y1="233.52448209208234" x2="321.2967543900013" y2="224.86422805423794" stroke="#d97706" stroke-width="2" /><line x1="338.47551790791766" y1="255.70324560999867" x2="347.13577194576203" y2="250.70324560999867" stroke="#d97706" stroke-width="2" /><circle cx="236" cy="316" r="30.266159349121153" fill="black" fill-opacity="0.2" stroke="#d97706" stroke-width="2" /><line x1="261.26615934912115" y1="316" x2="271.26615934912115" y2="316" stroke="#d97706" stroke-width="2" /><line x1="257.8811358524046" y1="328.6330796745606" x2="266.541389890249" y2="333.6330796745606" stroke="#d97706" stroke-width="2" /><line x1="248.63307967456058" y1="337.8811358524046" x2="253.63307967456058" y2="346.541389890249" stroke="#d97706" stroke-width="2" /><line x1="236" y1="341.26615934912115" x2="236" y2="351.26615934912115" stroke="#d97706" stroke-width="2" /><line x1="223.36692032543942" y1="337.8811358524046" x2="218.36692032543942" y2="346.541389890249" stroke="#d97706" stroke-width="2" /><line x1="214.1188641475954" y1="328.6330796745606" x2="205.458610109751" y2="333.6330796745606" stroke="#d97706" stroke-width="2" /><line x1="210.73384065087885" y1="316" x2="200.73384065087885" y2="316" stroke="#d97706" stroke-width="2" /><line x1="214.1188641475954" y1="303.3669203254394" x2="205.458610109751" y2="298.3669203254394" stroke="#d97706" stroke-width="2" /><line x1="223.36692032543942" y1="294.1188641475954" x2="218.36692032543942" y2="285.458610109751" stroke="#d97706" stroke-width="2" /><line x1="236" y1="290.73384065087885" x2="236" y2="280.73384065087885" stroke="#d97706" stroke-width="2" /><line x1="248.63307967456058" y1="294.1188641475954" x2="253.63307967456058" y2="285.458610109751" stroke="#d97706" stroke-width="2" /><line x1="257.8811358524046" y1="303.3669203254394" x2="266.541389890249" y2="298.3669203254394" stroke="#d97706" stroke-width="2" />
    </g>
    <circle cx="256" cy="152.0886262054555" r="5.019799716304988" fill="#fef08a" /><circle cx="307.95568689727224" cy="166.01011055178387" r="2.9038922181352973" fill="#fef08a" /><circle cx="345.9898894482161" cy="204.04431310272776" r="3.3294624760746956" fill="#fef08a" /><circle cx="359.9113737945445" cy="256" r="5.716907474445179" fill="#fef08a" /><circle cx="345.9898894482161" cy="307.95568689727224" r="3.752911390271038" fill="#fef08a" /><circle cx="307.95568689727224" cy="345.9898894482161" r="3.2246878729201853" fill="#fef08a" /><circle cx="256" cy="359.9113737945445" r="5.1806456909980625" fill="#fef08a" /><circle cx="204.04431310272778" cy="345.9898894482161" r="3.614596023224294" fill="#fef08a" /><circle cx="166.0101105517839" cy="307.9556868972723" r="3.3345497362315655" fill="#fef08a" /><circle cx="152.0886262054555" cy="256" r="6.4719578442163765" fill="#fef08a" /><circle cx="166.0101105517839" cy="204.04431310272776" r="2.946816905401647" fill="#fef08a" /><circle cx="204.0443131027277" cy="166.0101105517839" r="2.9649373907595873" fill="#fef08a" />
    <text x="256" y="191" fill="#fef08a" font-family="'Baskerville', 'Hoefler Text', Garamond, 'Times New Roman', serif" font-size="22" font-style="italic" text-anchor="middle" dominant-baseline="middle" filter="url(#tg_869)">LuxuryPunks</text>
    <g transform="translate(256,256)">
        <g class="hr-hand" transform="rotate(180.04718333333332)">
            <animateTransform attributeName="transform" type="rotate" from="180.04718333333332" to="540.0471833333334" dur="43200s" repeatCount="indefinite"/>
            <polygon points="-7.985815327614546,20 0,-80 7.985815327614546,20" fill="#f1f5f9" stroke="#d97706" stroke-width="1"/>
        </g>
        <g class="mn-hand" transform="rotate(0.5662)">
            <animateTransform attributeName="transform" type="rotate" from="0.5662" to="360.5662" dur="3600s" repeatCount="indefinite"/>
            <polygon points="-9.16253372747451,20 0,-120 9.16253372747451,20" fill="#f1f5f9" stroke="#d97706" stroke-width="1"/>
        </g>
        <g class="sc-hand" transform="rotate(33.972)">
            <animateTransform attributeName="transform" type="rotate" from="33.972" to="393.972" dur="60s" repeatCount="indefinite"/>
            <rect x="-2" y="-135" width="4" height="160" fill="#ef4444" />
        </g>
    </g>
</g></g>
<g id="watch1_869" style="display:none"><path d="m 152.79876,334.84159 c 1.892,-1.673 81.84,-50.62 122.326,-74.892 11.96,-7.17 12.65,-7.443 20.5,-8.094 l 8.124,-0.674 0.5,-6.5 c 0.275,-3.575 0.898,-7.117 1.384,-7.87 1.475,-2.29 90.703,-45.13 93.994,-45.13 3.09,0 5.442,1.902 6.11,4.942 1.564,7.126 -8.713,20.053 -21.988,27.653 -7.295,4.177 -28.465,13.583 -39.25,17.439 -6.242,2.231 -8.077,3.966 -4.195,3.966 1.13,0 9.792,-2.208 19.25,-4.906 26.167,-7.466 64.781,-18.245 68.568,-19.14 3.952,-0.936 7.815,0.488 8.675,3.196 1.69,5.324 -0.422,11.792 -4.358,13.352 -20.924,8.291 -68.238,25.178 -76.94,27.46 -6.176,1.62 -5.498,3.457 1,2.708 15.767,-1.817 21.274,-1.901 24.91,-0.379 3.314,1.387 3.77,2.057 4.808,7.056 1.367,6.585 0.573,11.853 -2.16,14.326 -1.69,1.53 -4.216,1.853 -16.65,2.123 -16.94,0.37 -18.2,0.59 -15.984,2.807 1.151,1.15 4.836,1.677 14.884,2.123 12.168,0.542 13.557,0.798 15.648,2.889 1.262,1.262 2.294,3.454 2.294,4.872 0,3.25 -2.21,8.615 -4.245,10.302 -0.854,0.709 -9.587,3.341 -19.404,5.85 -17.328,4.426 -18.334,4.565 -34.351,4.749 -9.075,0.103 -17.287,0.006 -18.25,-0.217 -1.316,-0.304 -1.753,-1.429 -1.764,-4.538 -0.026,-7.953 -0.552,-8.633 -6.685,-8.633 -5.413,0 -5.606,0.106 -19.75,10.893 -7.856,5.991 -15.214,11.391 -16.351,12 -2.484,1.33 -112.15,1.594 -110.65,0.267" transform="translate(75.43, 177.5) scale(0.985, 1)" fill="#cbd5e1" stroke="#475569" stroke-width="1"/>
<g transform="translate(350, 467) scale(0.2625, 0.2625) translate(-256, -256)">
    <path d="M 167.3277314370498 78.54977681441233 h 177.3445371259004 q 22.301365756429732 0 22.301365756429732 22.301365756429732 v 310.2977148583159 q 0 22.301365756429732 -22.301365756429732 22.301365756429732 h -177.3445371259004 q -22.301365756429732 0 -22.301365756429732 -22.301365756429732 v -310.2977148583159 q 0 -22.301365756429732 22.301365756429732 -22.301365756429732 Z" fill="#e2e8f0" stroke="#64748b" stroke-width="2" />
    <rect x="396" y="241" width="15" height="30" fill="#e2e8f0" stroke="#64748b" stroke-width="1" />
    
    <g transform="translate(256,256)">
        <circle class="watch-face" r="102.4680550955236" fill="#f8fafc" stroke="#64748b" stroke-width="4" />
    </g>
    <g clip-path="url(#cp_869_watchAlt)">
        
    </g>
    <circle cx="256" cy="134.7927098281216" r="7.579263115068898" fill="#ffffff" /><circle cx="296.4024300572928" cy="151.03140758728136" r="2.252499668393284" fill="#ffffff" /><circle cx="325.97906160847907" cy="195.3963549140608" r="3.0667425962165" fill="#ffffff" /><circle cx="336.8048601145856" cy="256" r="7.362256049178541" fill="#ffffff" /><circle cx="325.97906160847907" cy="316.6036450859392" r="2.3586382255889475" fill="#ffffff" /><circle cx="296.4024300572928" cy="360.96859241271864" r="3.601282326504588" fill="#ffffff" /><circle cx="256" cy="377.2072901718784" r="6.949257348431274" fill="#ffffff" /><circle cx="215.59756994270722" cy="360.96859241271864" r="2.8167908270843327" fill="#ffffff" /><circle cx="186.02093839152093" cy="316.60364508593926" r="3.2420327342115343" fill="#ffffff" /><circle cx="175.1951398854144" cy="256" r="5.452413963386789" fill="#ffffff" /><circle cx="186.02093839152093" cy="195.3963549140608" r="2.7523025516420603" fill="#ffffff" /><circle cx="215.59756994270717" cy="151.03140758728142" r="2.0902088917791843" fill="#ffffff" />
    <text x="256" y="211" fill="#ffffff" font-family="'Baskerville', 'Hoefler Text', Garamond, 'Times New Roman', serif" font-size="22" font-style="italic" text-anchor="middle" dominant-baseline="middle" filter="url(#tg_869_watchAlt)">LuxuryPunks</text>
    <g transform="translate(256,256)">
        <g class="hr-hand" transform="rotate(180.04718333333332)">
            <animateTransform attributeName="transform" type="rotate" from="180.04718333333332" to="540.0471833333334" dur="43200s" repeatCount="indefinite"/>
            <polygon points="-7.444055951200426,0 0,-80 7.444055951200426,0 0,25" fill="#fbbf24" stroke="#64748b" stroke-width="1"/>
        </g>
        <g class="mn-hand" transform="rotate(0.5662)">
            <animateTransform attributeName="transform" type="rotate" from="0.5662" to="360.5662" dur="3600s" repeatCount="indefinite"/>
            <polygon points="-7.416757042519748,0 0,-120 7.416757042519748,0 0,25" fill="#fbbf24" stroke="#64748b" stroke-width="1"/>
        </g>
        <g class="sc-hand" transform="rotate(33.972)">
            <animateTransform attributeName="transform" type="rotate" from="33.972" to="393.972" dur="60s" repeatCount="indefinite"/>
            <rect x="-2" y="-135" width="4" height="160" fill="#ef4444" />
        </g>
    </g>
</g></g>

<!-- COMMON STATIC TOP LAYERS -->

<g transform="rotate(-90, 10, 450)">
    <text x="10" y="450" class="tm-text">0869 made by LuxuryEditionz</text>
    <text x="10" y="450" fill="url(#dp_869)" style="font-family:'Courier New', monospace; font-size:4.5px; font-weight:bold; opacity:0.8">0869 made by LuxuryEditionz</text>
</g>

<!-- JS DYNAMIC SYNCHRONIZER SCRIPT -->
<script type="text/javascript">
<![CDATA[
(function(){"use strict";
try{
  var bg0 = document.getElementById('bg0_869');
  var bg1 = document.getElementById('bg1_869');
  var cloth0 = document.getElementById('cloth0_869');
  var cloth1 = document.getElementById('cloth1_869');
  var watch0 = document.getElementById('watch0_869');
  var watch1 = document.getElementById('watch1_869');

  // === 1. MULTI-CLICK DYNAMIC TRAIT CUSTOMIZATION ===
  var bgState = 0;
  var clothState = 0;
  var watchState = 0;

  var clickCount = 0;
  var clickTimer = null;

  var svgEl = document.getElementById('punk-svg-869');
  if (svgEl) {
      svgEl.addEventListener('click', function(e) {
          // Ignore clicks specifically targeting the watch face color toggle
          if (e.target && e.target.getAttribute && e.target.getAttribute('class') === 'watch-face') return;

          clickCount++;
          clearTimeout(clickTimer);

          clickTimer = setTimeout(function() {
              if (clickCount === 1) {
                  bgState = 1 - bgState;
                  if (bg0) bg0.style.display = bgState ? 'none' : '';
                  if (bg1) bg1.style.display = bgState ? '' : 'none';
              } else if (clickCount === 2) {
                  clothState = 1 - clothState;
                  if (cloth0) cloth0.style.display = clothState ? 'none' : '';
                  if (cloth1) cloth1.style.display = clothState ? '' : 'none';
              } else if (clickCount >= 3) {
                  watchState = 1 - watchState;
                  if (watch0) watch0.style.display = watchState ? 'none' : '';
                  if (watch1) watch1.style.display = watchState ? '' : 'none';
                  if (watchState) tick(); // Force immediate real-time update when watch becomes visible
              }
              clickCount = 0;
          }, 400); // 400ms multi-tap window for mobile/pc
      });
  }

  // === 2. REAL-TIME WATCH CLOCK SYNC ===
  var hs = [].slice.call(document.querySelectorAll('#punk-svg-869 .hr-hand'));
  var ms = [].slice.call(document.querySelectorAll('#punk-svg-869 .mn-hand'));
  var ss = [].slice.call(document.querySelectorAll('#punk-svg-869 .sc-hand'));

  // Strip SMIL animations so JS has exclusive control
  hs.concat(ms, ss).forEach(function(el) {
    var a = el.querySelector('animateTransform');
    if (a) a.parentNode.removeChild(a);
  });

  function tick() {
    var d = new Date();
    var sec = d.getSeconds();
    var min = d.getMinutes();
    var hr = d.getHours();
    var sRot = sec * 6;
    var mRot = min * 6 + sec * 0.1;
    var hRot = (hr % 12) * 30 + min * 0.5;
    // Use SVG attribute syntax (no 'deg' unit) — reliable on hidden elements
    ss.forEach(function(e) { e.setAttribute('transform', 'rotate(' + sRot + ')'); });
    ms.forEach(function(e) { e.setAttribute('transform', 'rotate(' + mRot + ')'); });
    hs.forEach(function(e) { e.setAttribute('transform', 'rotate(' + hRot + ')'); });
  }
  tick();
  setInterval(tick, 1000);

  // Safe interactivity example: Click to toggle watch face outline color
  var faces = [].slice.call(document.querySelectorAll('#punk-svg-869 .watch-face'));
  faces.forEach(function(face) {
      face.addEventListener('click', function() {
          var colors = ['#4a4ae0', '#4ae0a0', '#e04a4a', '#e0a04a', '#ffffff'];
          var randomColor = colors[Math.floor(Math.random() * colors.length)];
          face.setAttribute('stroke', randomColor);
      });
  });
}catch(e){/* Graceful degradation — CSS animations still render if JS is blocked */}
})();
]]>
</script>
</svg>